<?xml version="1.0" encoding="UTF-8" standalone="no"?>
<!-- Created with Inkscape (http://www.inkscape.org/) -->

<svg
   version="1.1"
   id="svg132"
   width="1326.2173"
   height="1271.6055"
   viewBox="0 0 1326.2173 1271.6055"
   sodipodi:docname="figure_1.svg"
   inkscape:version="1.2.2 (732a01da63, 2022-12-09)"
   xmlns:inkscape="http://www.inkscape.org/namespaces/inkscape"
   xmlns:sodipodi="http://sodipodi.sourceforge.net/DTD/sodipodi-0.dtd"
   xmlns="http://www.w3.org/2000/svg"
   xmlns:svg="http://www.w3.org/2000/svg">
  <defs
     id="defs136">
    <rect
       x="3257.5659"
       y="2729.9197"
       width="183.37865"
       height="83.039383"
       id="rect7964" />
  </defs>
  <sodipodi:namedview
     id="namedview134"
     pagecolor="#ffffff"
     bordercolor="#000000"
     borderopacity="0.25"
     inkscape:showpageshadow="2"
     inkscape:pageopacity="0.0"
     inkscape:pagecheckerboard="0"
     inkscape:deskcolor="#d1d1d1"
     showgrid="false"
     inkscape:zoom="0.38887869"
     inkscape:cx="322.72275"
     inkscape:cy="874.30863"
     inkscape:window-width="1920"
     inkscape:window-height="1009"
     inkscape:window-x="-8"
     inkscape:window-y="-8"
     inkscape:window-maximized="1"
     inkscape:current-layer="g138" />
  <g
     inkscape:groupmode="layer"
     inkscape:label="Image"
     id="g138"
     transform="translate(-2727.0097,-1531.8563)">
    <rect
       style="display:inline;fill:#0eaf00;fill-opacity:1;stroke:none;stroke-width:17.021;stroke-linecap:round;stroke-linejoin:round;stroke-opacity:1;paint-order:stroke fill markers"
       id="rect4739"
       width="1083.6587"
       height="944.31335"
       x="2814.917"
       y="1702.6919" />
    <rect
       style="fill:#5d3587;fill-opacity:1;stroke:none;stroke-width:18.8976;stroke-linecap:round;stroke-linejoin:round;paint-order:stroke fill markers"
       id="rect298"
       width="760.09198"
       height="704.26599"
       x="3130.5483"
       y="1825.0796"
       ry="50" />
    <rect
       style="fill:#898989;fill-opacity:1;stroke:none;stroke-width:18.8976;stroke-linecap:round;stroke-linejoin:round;paint-order:stroke fill markers"
       id="rect300"
       width="214.34172"
       height="236.18677"
       x="3766.1055"
       y="2059.1191"
       ry="10" />
    <rect
       style="fill:#242424;fill-opacity:1;stroke:none;stroke-width:10.9168;stroke-linecap:round;stroke-linejoin:round;paint-order:stroke fill markers"
       id="rect302"
       width="195.89052"
       height="107.59747"
       x="3381.7651"
       y="2539.408" />
    <rect
       style="fill:#dcdcdc;fill-opacity:1;stroke:none;stroke-width:20.4735;stroke-linecap:round;stroke-linejoin:round;stroke-opacity:1;paint-order:stroke fill markers"
       id="rect304"
       width="299.90311"
       height="764.38629"
       x="2814.917"
       y="1844.4039" />
    <rect
       style="fill:#242424;fill-opacity:1;stroke:none;stroke-width:14.9227;stroke-linecap:round;stroke-linejoin:round;paint-order:stroke fill markers"
       id="rect4342"
       width="38"
       height="334.73843"
       x="3905.6702"
       y="2312.2668" />
    <rect
       style="fill:#242424;fill-opacity:1;stroke:none;stroke-width:19.1986;stroke-linecap:round;stroke-linejoin:round;paint-order:stroke fill markers"
       id="rect4342-1"
       width="38"
       height="338.08942"
       x="3905.6702"
       y="1702.6919" />
    <rect
       style="fill:#b25a15;fill-opacity:1;stroke:none;stroke-width:18.8976;stroke-linecap:round;stroke-linejoin:round;stroke-opacity:1;paint-order:stroke fill markers"
       id="rect6354"
       width="325.5127"
       height="187.92487"
       x="3379.2915"
       y="1702.6919" />
    <g
       aria-label="3.5mmコネクタ"
       id="text8696"
       style="font-size:53.3333px;font-family:'Noto Sans';-inkscape-font-specification:'Noto Sans';fill:#3d3d3d;stroke-width:18.8976;stroke-linecap:round;stroke-linejoin:round;paint-order:stroke fill markers">
      <path
         d="m 3323.6488,2724.1543 q 0,3.84 -2.1867,6.1334 -2.1333,2.2399 -5.7066,2.9866 v 0.2133 q 4.5333,0.5334 6.7733,2.88 2.2933,2.3467 2.2933,6.1334 0,3.36 -1.5466,5.92 -1.5467,2.56 -4.8,4 -3.2,1.44 -8.2667,1.44 -2.9867,0 -5.5467,-0.48 -2.56,-0.4267 -4.9066,-1.6 v -4.3734 q 2.4,1.2267 5.1733,1.8667 2.7733,0.64 5.3333,0.64 5.12,0 7.36,-1.9733 2.2934,-2.0267 2.2934,-5.5467 0,-3.5733 -2.8267,-5.12 -2.7733,-1.6 -7.84,-1.6 h -3.68 v -4 h 3.7333 q 4.6934,0 7.0934,-1.9733 2.4533,-1.9733 2.4533,-5.2267 0,-2.7733 -1.8667,-4.2666 -1.8666,-1.5467 -5.0666,-1.5467 -3.0934,0 -5.28,0.9067 -2.1867,0.9066 -4.32,2.2933 l -2.3467,-3.2 q 2.0267,-1.6 5.0133,-2.7733 3.04,-1.1734 6.88,-1.1734 5.9734,0 8.8534,2.6667 2.9333,2.6667 2.9333,6.7733 z"
         id="path14699" />
      <path
         d="m 3331.7021,2750.4476 q 0,-1.9733 0.96,-2.7733 0.96,-0.8 2.2934,-0.8 1.3333,0 2.3466,0.8 1.0134,0.8 1.0134,2.7733 0,1.92 -1.0134,2.7734 -1.0133,0.8533 -2.3466,0.8533 -1.3334,0 -2.2934,-0.8533 -0.96,-0.8534 -0.96,-2.7734 z"
         id="path14701" />
      <path
         d="m 3356.8221,2729.9677 q 5.8133,0 9.28,2.9333 3.52,2.9333 3.52,8.2666 0,5.92 -3.7867,9.3334 -3.7333,3.36 -10.4533,3.36 -2.9867,0 -5.5467,-0.5334 -2.56,-0.5333 -4.32,-1.5466 v -4.4267 q 1.92,1.1733 4.64,1.8667 2.7734,0.64 5.28,0.64 4.2134,0 6.7734,-1.9734 2.6133,-2.0266 2.6133,-6.24 0,-3.7333 -2.2933,-5.7066 -2.2934,-2.0267 -7.2534,-2.0267 -1.4933,0 -3.4133,0.2667 -1.92,0.2666 -3.0933,0.5333 l -2.3467,-1.4933 1.44,-17.9733 h 19.0933 v 4.2666 h -15.0933 l -0.9067,11.04 q 0.9067,-0.16 2.4534,-0.3733 1.5466,-0.2133 3.4133,-0.2133 z"
         id="path14703" />
      <path
         d="m 3408.5554,2724.2077 q 4.8534,0 7.2534,2.5066 2.4,2.5067 2.4,8 v 18.6133 h -4.64 v -18.4 q 0,-6.7733 -5.8134,-6.7733 -4.16,0 -5.9733,2.4 -1.76,2.4 -1.76,6.9867 v 15.7866 h -4.64 v -18.4 q 0,-6.7733 -5.8667,-6.7733 -4.3199,0 -5.9733,2.6667 -1.6533,2.6666 -1.6533,7.68 v 14.8266 h -4.6933 v -28.5866 h 3.7866 l 0.6934,3.8933 h 0.2666 q 1.3334,-2.24 3.5734,-3.3066 2.2933,-1.12 4.8533,-1.12 6.72,0 8.7466,4.8 h 0.2667 q 1.44,-2.4534 3.8933,-3.6267 2.4534,-1.1733 5.28,-1.1733 z"
         id="path14705" />
      <path
         d="m 3458.422,2724.2077 q 4.8534,0 7.2534,2.5066 2.4,2.5067 2.4,8 v 18.6133 h -4.64 v -18.4 q 0,-6.7733 -5.8134,-6.7733 -4.16,0 -5.9733,2.4 -1.76,2.4 -1.76,6.9867 v 15.7866 h -4.64 v -18.4 q 0,-6.7733 -5.8666,-6.7733 -4.32,0 -5.9734,2.6667 -1.6533,2.6666 -1.6533,7.68 v 14.8266 h -4.6933 v -28.5866 h 3.7866 l 0.6934,3.8933 h 0.2666 q 1.3334,-2.24 3.5734,-3.3066 2.2933,-1.12 4.8533,-1.12 6.72,0 8.7466,4.8 h 0.2667 q 1.44,-2.4534 3.8933,-3.6267 2.4534,-1.1733 5.28,-1.1733 z"
         id="path14707" />
      <path
         d="m 3509.687,2726.4527 h -28.9583 v -4.5834 h 33.7499 v 29.7917 h -4.7916 v -2.2917 h -28.9583 v -4.5833 h 28.9583 z"
         id="path14709" />
      <path
         d="m 3562.8119,2719.9943 1.25,-0.4166 2.2917,3.125 q 0.8333,1.4583 -0.8333,1.4583 -4.375,4.5833 -11.4583,10.2083 v 21.875 h -4.7917 v -18.5417 q -6.875,4.5834 -15.4167,8.3334 l -3.5416,-3.75 q 17.2916,-6.4584 28.3333,-17.7083 l -23.5417,1.0416 -0.625,-4.5833 14.7917,-0.4167 v -9.375 h 4.1667 q 1.875,0.4167 0.625,1.6667 v 7.5 z m 8.3334,26.0417 q -7.0834,-6.0417 -12.7083,-9.1667 l 3.1249,-3.9583 q 7.5,3.9583 13.125,8.9583 z"
         id="path14711" />
      <path
         d="m 3620.9369,2724.786 q -3.9583,22.7083 -26.0416,32.5 l -3.75,-3.9584 q 20.4166,-8.3333 24.5833,-28.7499 h -16.6667 q -4.7916,7.9166 -10,12.7083 l -4.1666,-2.7084 q 10.8333,-9.7916 13.9583,-22.9166 l 4.7917,1.6667 q 1.25,0.625 -0.4167,1.25 -0.8333,2.7083 -2.2917,5.4166 h 15 l 1.875,-1.0416 3.75,3.75 q 1.4584,1.4583 -0.625,2.0833 z"
         id="path14713" />
      <path
         d="m 3656.9786,2714.5777 q -0.8334,2.5 -2.0834,4.7916 h 13.9583 l 2.2917,-0.8333 2.7083,2.7083 q 0.8334,1.0417 -0.8333,1.6667 -1.6667,8.3333 -5,15.2083 l 5,3.3333 -3.125,4.5834 -4.5833,-3.3334 q -6.0417,8.75 -17.2917,14.375 l -4.7916,-3.5416 q 12.5,-5.2084 17.9166,-13.75 -5.2083,-3.3334 -10.2083,-6.0417 l 2.5,-3.75 q 6.4583,2.9167 10.625,5.4167 3.125,-6.4583 3.75,-11.4583 h -15.2083 q -3.9584,7.0833 -9.7917,12.9166 l -3.9583,-2.7083 q 10.625,-11.0417 13.9583,-23.3333 l 5,2.0833 q 1.6667,0.8333 -0.8333,1.6667 z"
         id="path14715" />
    </g>
    <g
       aria-label="筐体"
       id="text8696-0"
       style="font-size:53.3333px;font-family:'Noto Sans';-inkscape-font-specification:'Noto Sans';fill:#3d3d3d;stroke-width:18.8976;stroke-linecap:round;stroke-linejoin:round;paint-order:stroke fill markers">
      <path
         d="m 3890.4193,1598.3751 q 4.375,-5 5.8334,-11.875 l 4.375,0.625 q 1.6666,0.4166 -0.4167,1.4583 -0.4167,1.6667 -0.8333,2.5 h 16.6666 v 3.9583 h -9.7916 q 1.4583,2.0834 1.875,4.5834 l -4.5834,0.8333 q -0.4166,-2.7083 -1.875,-5.4167 h -3.75 q -1.4583,3.125 -3.9583,6.25 z m 2.0834,-3.3334 h -6.4584 q 1.0417,2.2917 1.4584,4.7917 l -4.7917,0.8333 q 0,-2.7083 -1.0417,-5.625 h -3.75 q -2.5,4.375 -5.625,7.2917 l -2.9166,-3.3333 q 5,-5 7.5,-12.9167 l 4.5833,0.625 q 1.875,0.625 -0.2083,1.4583 l -1.4584,2.9167 h 12.7084 z m 21.875,10.8334 h -36.875 V 1629 h 38.9583 v 3.9584 h -38.9583 v 1.6666 h -4.1667 v -32.7083 h 41.0417 z m -35,16.8749 h 14.375 v -3.9583 h -11.6667 v -3.3333 h 11.6667 v -3.5417 h -12.9167 v -3.3333 h 30.8333 v 3.3333 h -13.75 v 3.5417 h 11.875 v 3.3333 h -11.875 v 3.9583 h 15.2084 v 3.3334 h -33.75 z"
         id="path14598" />
      <path
         d="m 3933.961,1621.9167 q 10.2083,-9.375 15,-20.8333 h -13.125 v -3.9583 h 14.1666 v -10.4167 h 3.9584 q 1.6666,0.2083 0.2083,1.25 v 9.1667 h 15 v 3.9583 h -13.75 q 3.3333,10 15,20.8333 l -2.9167,4.1667 q -8.9583,-8.9584 -13.3333,-18.125 v 12.0833 h 6.0417 V 1624 h -6.0417 v 10.2084 h -4.1667 V 1624 h -5.4166 v -3.9583 h 5.4166 v -12.0833 q -5,11.0416 -12.9166,17.9166 z m 1.6666,-32.7083 q -1.0416,5.4167 -2.9166,10.2083 1.6666,0.625 0,1.4584 v 33.7499 h -4.1667 v -26.0416 q -1.4583,3.125 -3.75,5.4167 l -2.9166,-3.75 q 7.0833,-9.5834 9.7916,-23.75 l 4.5833,1.6666 q 1.0417,0.8334 -0.625,1.0417 z"
         id="path14600" />
    </g>
    <path
       style="fill:none;fill-opacity:1;stroke:#3d3d3d;stroke-width:8.92235;stroke-linecap:round;stroke-linejoin:round;stroke-dasharray:none;stroke-opacity:1;paint-order:stroke fill markers"
       d="m 3479.3545,2635.1266 v 56.711"
       id="path10676" />
    <path
       style="fill:none;fill-opacity:1;stroke:#3d3d3d;stroke-width:9.55448;stroke-linecap:round;stroke-linejoin:round;stroke-dasharray:none;stroke-opacity:1;paint-order:stroke fill markers"
       d="m 3921.5012,1648.9534 v 65.1049"
       id="path10676-1" />
    <g
       aria-label="詰め物"
       id="text8696-7"
       style="font-size:53.3333px;font-family:'Noto Sans';-inkscape-font-specification:'Noto Sans';display:inline;fill:#3d3d3d;stroke-width:18.8976;stroke-linecap:round;stroke-linejoin:round;paint-order:stroke fill markers">
      <path
         d="m 2785.3359,2711.661 h 13.5417 v 3.9583 h -13.5417 z m 14.7917,7.0833 v 3.9584 h -18.125 v -3.9584 z m -1.25,7.2917 v 3.9583 h -13.5417 v -3.9583 z m 0,7.2916 v 3.9584 h -13.5417 v -3.9584 z m 0.625,7.5 v 16.4584 h -3.5417 v -1.875 h -8.125 v 2.5 h -3.5416 v -17.0834 z m -3.5417,3.3334 h -8.125 v 7.9166 h 8.125 z m 26.0417,-2.0834 h -13.3333 v 9.5834 h 13.3333 z m -17.5,-3.9583 h 21.6666 v 19.1667 h -4.1666 v -1.6667 h -13.3333 v 2.0833 h -4.1667 z m 23.75,-9.1666 v 3.9583 h -25.4167 v -3.9583 h 10 v -6.875 h -10.625 v -3.9584 h 10.625 v -8.125 h 3.9583 q 1.6667,0.2084 0.2084,1.25 v 6.875 h 12.7083 v 3.9584 h -12.7083 v 6.875 z"
         id="path14718" />
      <path
         d="m 2864.2942,2720.8277 q 7.7083,0.4166 12.2917,5 4.5833,4.5833 4.5833,12.2916 0,7.0833 -4.1667,11.25 -3.75,3.75 -10.4166,6.0417 l -2.7083,-3.9584 q 6.8749,-2.2916 9.7916,-5.2083 3.125,-3.125 3.125,-8.3333 0,-5.8334 -3.125,-8.9583 -3.9583,-3.9584 -10.2083,-4.375 -2.2917,8.7499 -6.875,17.9166 l 3.9583,4.5833 -3.3333,2.5 -2.9167,-3.3333 q -1.6666,2.7083 -3.5416,4.5833 -2.7084,2.7084 -5.4167,2.7084 -2.9167,0 -5.4167,-2.5 -2.7083,-2.7084 -2.7083,-7.7084 0,-7.5 8.125,-15.8333 -1.4583,-6.25 -2.0833,-11.875 h 3.9583 q 1.875,0.4167 0.4167,1.6667 0.4166,4.5833 1.25,7.7083 5.4166,-3.3333 11.0416,-4.1666 0.8334,-3.125 1.6667,-9.375 l 4.1667,1.0416 q 2.0833,0.8334 0,1.6667 z m -12.9166,22.0833 q -2.7084,-4.375 -4.7917,-10.8334 -5.2083,6.25 -5.2083,11.6667 0,2.9167 1.6666,4.5833 1.0417,1.0417 2.2917,1.0417 1.0417,0 2.5,-1.4583 1.25,-1.25 3.5417,-5 z m 7.7083,-17.9167 q -5,0.8334 -9.1667,4.1667 2.0834,7.0833 3.9584,9.7916 3.5416,-6.875 5.2083,-13.9583 z"
         id="path14720" />
      <path
         d="m 2894.5025,2720.6193 h 3.3334 v -10.625 h 3.9583 q 1.6667,0.2084 0.2083,1.25 v 9.375 h 5.8334 v 3.9584 h -5.8334 v 11.4583 l 5.4167,-2.0834 1.0417,3.5417 -6.4584,2.7083 v 17.9167 h -4.1666 v -16.4583 l -6.4584,2.0833 q -0.2083,1.4583 -1.0416,0.625 l -1.4584,-4.5833 8.9584,-2.5 v -12.7083 h -3.5417 q -0.4167,3.9583 -1.6667,7.7083 l -3.9583,-1.4583 q 2.5,-7.2917 2.5,-16.0417 l 4.1667,0.625 q 0.625,0.625 -0.4167,1.25 z m 40.625,-0.4166 -0.2083,25.6249 q 0,11.0417 -6.25,11.0417 h -6.0417 l -0.8333,-4.5833 h 5.2083 q 3.75,0.4166 3.75,-6.4584 l 0.2083,-21.6666 h -2.2916 q 0.2083,18.3333 -18.125,33.75 l -2.7083,-3.75 q 15.4166,-11.4584 16.875,-30 h -3.3334 q -0.8333,12.7083 -12.7083,22.5 l -2.9167,-3.5417 q 10.4167,-8.125 11.6667,-18.9583 h -3.3333 q -2.2917,5.625 -5.8334,9.5833 l -3.5416,-2.5 q 7.2916,-8.9583 8.9583,-20.625 l 4.375,0.8334 q 0.8333,0.8333 -0.625,1.0416 -0.625,3.5417 -1.875,7.7084 z"
         id="path14722" />
    </g>
    <text
       xml:space="preserve"
       style="font-size:53.3333px;font-family:'Noto Sans';-inkscape-font-specification:'Noto Sans';display:none;fill:#3d3d3d;fill-opacity:1;stroke:none;stroke-width:18.8976;stroke-linecap:round;stroke-linejoin:round;stroke-opacity:1;paint-order:stroke fill markers"
       x="3297.3555"
       y="2753.3276"
       id="text8696-3"><tspan
         sodipodi:role="line"
         id="tspan8694-7"
         x="3297.3555"
         y="2753.3276">3.5mmコネクタ</tspan></text>
    <text
       xml:space="preserve"
       style="font-size:53.3333px;font-family:'Noto Sans';-inkscape-font-specification:'Noto Sans';display:none;fill:#3d3d3d;fill-opacity:1;stroke:none;stroke-width:18.8976;stroke-linecap:round;stroke-linejoin:round;stroke-opacity:1;paint-order:stroke fill markers"
       x="3866.2527"
       y="1629.8334"
       id="text8696-0-6"><tspan
         sodipodi:role="line"
         x="3866.2527"
         y="1629.8334"
         id="tspan11461-8">筐体</tspan></text>
    <text
       xml:space="preserve"
       style="font-size:53.3333px;font-family:'Noto Sans';-inkscape-font-specification:'Noto Sans';display:none;fill:#3d3d3d;fill-opacity:1;stroke:none;stroke-width:18.8976;stroke-linecap:round;stroke-linejoin:round;stroke-opacity:1;paint-order:stroke fill markers"
       x="2779.0859"
       y="2753.3276"
       id="text8696-7-5"><tspan
         sodipodi:role="line"
         id="tspan8694-9-4"
         x="2779.0859"
         y="2753.3276">詰め物</tspan></text>
    <path
       style="fill:none;fill-opacity:1;stroke:#3d3d3d;stroke-width:10.829;stroke-linecap:round;stroke-linejoin:round;stroke-dasharray:none;stroke-opacity:1;paint-order:stroke fill markers"
       d="m 2860.0356,2604.7832 v 83.5386"
       id="path10676-0" />
  </g>
</svg>
