<?xml version="1.0" encoding="UTF-8" standalone="no"?>
<!-- Created with Inkscape (http://www.inkscape.org/) -->

<svg
   version="1.1"
   id="svg132"
   width="1331.5985"
   height="647.16058"
   viewBox="0 0 1331.5986 647.1606"
   sodipodi:docname="xl_figure_1.svg"
   inkscape:version="1.2.2 (732a01da63, 2022-12-09)"
   xmlns:inkscape="http://www.inkscape.org/namespaces/inkscape"
   xmlns:sodipodi="http://sodipodi.sourceforge.net/DTD/sodipodi-0.dtd"
   xmlns="http://www.w3.org/2000/svg"
   xmlns:svg="http://www.w3.org/2000/svg">
  <defs
     id="defs136">
    <rect
       x="3257.5659"
       y="2729.9197"
       width="183.37865"
       height="83.039383"
       id="rect7964" />
  </defs>
  <sodipodi:namedview
     id="namedview134"
     pagecolor="#ffffff"
     bordercolor="#000000"
     borderopacity="0.25"
     inkscape:showpageshadow="2"
     inkscape:pageopacity="0.0"
     inkscape:pagecheckerboard="0"
     inkscape:deskcolor="#d1d1d1"
     showgrid="false"
     inkscape:zoom="0.85677259"
     inkscape:cx="670.53966"
     inkscape:cy="407.34263"
     inkscape:window-width="1920"
     inkscape:window-height="1009"
     inkscape:window-x="-8"
     inkscape:window-y="-8"
     inkscape:window-maximized="1"
     inkscape:current-layer="g138" />
  <g
     inkscape:groupmode="layer"
     inkscape:label="Image"
     id="g138"
     transform="translate(-2720.7974,-1781.452)">
    <rect
       style="fill:#ffffff;fill-opacity:1;stroke:none;stroke-width:9.10784;stroke-linejoin:round;paint-order:stroke fill markers"
       id="rect266"
       width="1331.5985"
       height="647.16058"
       x="2720.7974"
       y="1781.452" />
    <rect
       style="display:inline;fill:#0eaf00;fill-opacity:1;stroke:none;stroke-width:3.46395;stroke-linecap:round;stroke-linejoin:round;stroke-opacity:1;paint-order:stroke fill markers"
       id="rect4739"
       width="1083.6587"
       height="39.110001"
       x="2806.9817"
       y="2222.3423" />
    <rect
       style="fill:#5d3587;fill-opacity:1;stroke:none;stroke-width:4.45333;stroke-linecap:round;stroke-linejoin:round;paint-order:stroke fill markers"
       id="rect298"
       width="760.09198"
       height="39.110779"
       x="3130.5483"
       y="2146.6172" />
    <rect
       style="fill:#898989;fill-opacity:1;stroke:none;stroke-width:18.8976;stroke-linecap:round;stroke-linejoin:round;paint-order:stroke fill markers"
       id="rect300"
       width="214.3418"
       height="87.483521"
       x="3766.1055"
       y="2059.1338"
       ry="10" />
    <rect
       style="fill:#dcdcdc;fill-opacity:1;stroke:none;stroke-width:10.6611;stroke-linecap:round;stroke-linejoin:round;stroke-opacity:1;paint-order:stroke fill markers"
       id="rect304"
       width="299.90311"
       height="207.27087"
       x="2814.917"
       y="2008.1198" />
    <rect
       style="fill:#242424;fill-opacity:1;stroke:none;stroke-width:10.0659;stroke-linecap:round;stroke-linejoin:round;paint-order:stroke fill markers"
       id="rect4342"
       width="38"
       height="152.30566"
       x="3905.6702"
       y="2157.5391" />
    <rect
       style="fill:#242424;fill-opacity:1;stroke:none;stroke-width:26.0273;stroke-linecap:round;stroke-linejoin:round;paint-order:stroke fill markers"
       id="rect4342-9"
       width="38"
       height="1018.2814"
       x="-2008.1198"
       y="2812.5352"
       transform="rotate(-90)" />
    <g
       aria-label="筐体"
       id="text8696-0-6"
       style="font-size:53.3333px;font-family:'Noto Sans';-inkscape-font-specification:'Noto Sans';display:inline;fill:#3d3d3d;stroke-width:18.8976;stroke-linecap:round;stroke-linejoin:round;paint-order:stroke fill markers">
      <path
         d="m 3627.2404,1866.9162 q 4.375,-5 5.8333,-11.875 l 4.375,0.625 q 1.6667,0.4167 -0.4167,1.4583 -0.4166,1.6667 -0.8333,2.5 h 16.6667 v 3.9584 h -9.7917 q 1.4583,2.0833 1.875,4.5833 l -4.5833,0.8333 q -0.4167,-2.7083 -1.875,-5.4166 h -3.75 q -1.4584,3.125 -3.9584,6.25 z m 2.0833,-3.3333 h -6.4583 q 1.0417,2.2916 1.4583,4.7916 l -4.7916,0.8334 q 0,-2.7084 -1.0417,-5.625 h -3.75 q -2.5,4.375 -5.625,7.2916 l -2.9167,-3.3333 q 5,-5 7.5,-12.9167 l 4.5834,0.625 q 1.875,0.625 -0.2084,1.4584 l -1.4583,2.9166 h 12.7083 z m 21.875,10.8333 h -36.875 v 23.125 h 38.9583 v 3.9583 h -38.9583 v 1.6667 h -4.1666 v -32.7083 h 41.0416 z m -35,16.875 h 14.375 v -3.9583 h -11.6666 v -3.3334 h 11.6666 v -3.5416 h -12.9166 v -3.3334 h 30.8333 v 3.3334 h -13.75 v 3.5416 h 11.875 v 3.3334 h -11.875 v 3.9583 h 15.2083 v 3.3333 h -33.75 z"
         id="path17591" />
      <path
         d="m 3670.782,1890.4578 q 10.2084,-9.3749 15,-20.8333 h -13.125 v -3.9583 h 14.1667 v -10.4167 h 3.9583 q 1.6667,0.2084 0.2083,1.25 v 9.1667 h 15 v 3.9583 h -13.75 q 3.3334,10 15,20.8333 l -2.9166,4.1667 q -8.9584,-8.9583 -13.3334,-18.125 v 12.0834 h 6.0417 v 3.9583 h -6.0417 v 10.2083 h -4.1666 v -10.2083 h -5.4167 v -3.9583 h 5.4167 v -12.0834 q -5,11.0417 -12.9167,17.9167 z m 1.6667,-32.7083 q -1.0417,5.4167 -2.9167,10.2084 1.6667,0.625 0,1.4583 v 33.75 h -4.1666 v -26.0417 q -1.4584,3.125 -3.75,5.4167 l -2.9167,-3.75 q 7.0833,-9.5833 9.7917,-23.75 l 4.5833,1.6667 q 1.0417,0.8333 -0.625,1.0416 z"
         id="path17593" />
    </g>
    <g
       aria-label="詰め物"
       id="text8696-7-5"
       style="font-size:53.3333px;font-family:'Noto Sans';-inkscape-font-specification:'Noto Sans';display:inline;fill:#3d3d3d;stroke-width:18.8976;stroke-linecap:round;stroke-linejoin:round;paint-order:stroke fill markers">
      <path
         d="m 2788.2351,2314.8724 h 13.5417 v 3.9584 h -13.5417 z m 14.7917,7.0833 v 3.9584 h -18.125 v -3.9584 z m -1.25,7.2917 v 3.9583 h -13.5417 v -3.9583 z m 0,7.2917 v 3.9583 h -13.5417 v -3.9583 z m 0.625,7.5 v 16.4583 h -3.5417 v -1.875 h -8.125 v 2.5 h -3.5417 v -17.0833 z m -3.5417,3.3333 h -8.125 v 7.9167 h 8.125 z m 26.0416,-2.0833 h -13.3333 v 9.5833 h 13.3333 z m -17.4999,-3.9584 h 21.6666 v 19.1667 h -4.1667 v -1.6667 h -13.3333 v 2.0834 h -4.1666 z m 23.7499,-9.1666 v 3.9583 h -25.4166 v -3.9583 h 10 v -6.875 h -10.625 v -3.9583 h 10.625 v -8.125 h 3.9583 q 1.6667,0.2083 0.2084,1.25 v 6.875 h 12.7083 v 3.9583 h -12.7083 v 6.875 z"
         id="path17607" />
      <path
         d="m 2867.1934,2324.0391 q 7.7083,0.4166 12.2916,5 4.5834,4.5833 4.5834,12.2916 0,7.0834 -4.1667,11.25 -3.75,3.75 -10.4166,6.0417 l -2.7084,-3.9583 q 6.875,-2.2917 9.7917,-5.2084 3.125,-3.125 3.125,-8.3333 0,-5.8333 -3.125,-8.9583 -3.9583,-3.9584 -10.2083,-4.375 -2.2917,8.75 -6.875,17.9166 l 3.9583,4.5834 -3.3333,2.5 -2.9167,-3.3334 q -1.6667,2.7084 -3.5417,4.5834 -2.7083,2.7083 -5.4166,2.7083 -2.9167,0 -5.4167,-2.5 -2.7083,-2.7083 -2.7083,-7.7083 0,-7.5 8.125,-15.8334 -1.4584,-6.25 -2.0834,-11.8749 h 3.9584 q 1.875,0.4166 0.4166,1.6666 0.4167,4.5833 1.25,7.7083 5.4167,-3.3333 11.0417,-4.1666 0.8333,-3.125 1.6667,-9.375 l 4.1666,1.0417 q 2.0834,0.8333 0,1.6666 z m -12.9167,22.0833 q -2.7083,-4.375 -4.7916,-10.8333 -5.2084,6.25 -5.2084,11.6666 0,2.9167 1.6667,4.5834 1.0417,1.0416 2.2917,1.0416 1.0416,0 2.5,-1.4583 1.25,-1.25 3.5416,-5 z m 7.7084,-17.9167 q -5,0.8334 -9.1667,4.1667 2.0833,7.0833 3.9583,9.7917 3.5417,-6.875 5.2084,-13.9584 z"
         id="path17609" />
      <path
         d="m 2897.4017,2323.8307 h 3.3333 v -10.6249 h 3.9584 q 1.6666,0.2083 0.2083,1.25 v 9.3749 h 5.8333 v 3.9584 h -5.8333 v 11.4583 l 5.4167,-2.0833 1.0416,3.5416 -6.4583,2.7084 v 17.9166 h -4.1667 v -16.4583 l -6.4583,2.0833 q -0.2083,1.4584 -1.0417,0.625 l -1.4583,-4.5833 8.9583,-2.5 v -12.7083 h -3.5416 q -0.4167,3.9583 -1.6667,7.7083 l -3.9583,-1.4583 q 2.5,-7.2917 2.5,-16.0417 l 4.1666,0.625 q 0.625,0.625 -0.4166,1.25 z m 40.625,-0.4166 -0.2084,25.625 q 0,11.0416 -6.2499,11.0416 h -6.0417 l -0.8333,-4.5833 h 5.2083 q 3.75,0.4167 3.75,-6.4583 l 0.2083,-21.6667 h -2.2916 q 0.2083,18.3333 -18.125,33.75 l -2.7084,-3.75 q 15.4167,-11.4583 16.875,-30 h -3.3333 q -0.8333,12.7083 -12.7083,22.5 l -2.9167,-3.5417 q 10.4167,-8.125 11.6667,-18.9583 h -3.3334 q -2.2916,5.625 -5.8333,9.5833 l -3.5417,-2.5 q 7.2917,-8.9583 8.9584,-20.6249 l 4.375,0.8333 q 0.8333,0.8333 -0.625,1.0417 -0.625,3.5416 -1.875,7.7083 z"
         id="path17611" />
    </g>
    <path
       style="fill:none;fill-opacity:1;stroke:#3d3d3d;stroke-width:10;stroke-linecap:round;stroke-linejoin:round;stroke-dasharray:none;stroke-opacity:1;paint-order:stroke fill markers"
       d="m 2860.5532,2202.6054 v 89.5127"
       id="path10676-0" />
    <g
       aria-label="3DS基板"
       id="text8696-7-5-6"
       style="font-size:53.3333px;font-family:'Noto Sans';-inkscape-font-specification:'Noto Sans';display:inline;fill:#3d3d3d;stroke-width:18.8976;stroke-linecap:round;stroke-linejoin:round;paint-order:stroke fill markers">
      <path
         d="m 3277.6603,2327.3657 q 0,3.84 -2.1867,6.1334 -2.1333,2.24 -5.7067,2.9866 v 0.2134 q 4.5334,0.5333 6.7734,2.88 2.2933,2.3466 2.2933,6.1333 0,3.36 -1.5467,5.92 -1.5466,2.56 -4.8,4 -3.2,1.44 -8.2666,1.44 -2.9867,0 -5.5467,-0.48 -2.56,-0.4267 -4.9067,-1.6 v -4.3733 q 2.4,1.2266 5.1734,1.8666 2.7733,0.64 5.3333,0.64 5.12,0 7.36,-1.9733 2.2933,-2.0267 2.2933,-5.5467 0,-3.5733 -2.8266,-5.12 -2.7734,-1.6 -7.84,-1.6 h -3.68 v -4 h 3.7333 q 4.6933,0 7.0933,-1.9733 2.4534,-1.9733 2.4534,-5.2267 0,-2.7733 -1.8667,-4.2666 -1.8667,-1.5467 -5.0667,-1.5467 -3.0933,0 -5.28,0.9067 -2.1866,0.9066 -4.32,2.2933 l -2.3466,-3.2 q 2.0266,-1.6 5.0133,-2.7733 3.04,-1.1733 6.88,-1.1733 5.9733,0 8.8533,2.6666 2.9334,2.6667 2.9334,6.7733 z"
         id="path17596" />
      <path
         d="m 3317.5536,2337.1257 q 0,9.6534 -5.28,14.56 -5.2267,4.8534 -14.6133,4.8534 h -10.6134 v -38.08 h 11.7334 q 5.7066,0 9.92,2.1333 4.2666,2.1333 6.56,6.2933 2.2933,4.16 2.2933,10.24 z m -5.0667,0.16 q 0,-7.6266 -3.7866,-11.1466 -3.7334,-3.5734 -10.6134,-3.5734 h -6.24 v 29.8667 h 5.1734 q 15.4666,0 15.4666,-15.1467 z"
         id="path17598" />
      <path
         d="m 3347.5802,2346.3524 q 0,5.0667 -3.68,7.8933 -3.68,2.8267 -9.92,2.8267 -3.2,0 -5.92,-0.48 -2.72,-0.48 -4.5333,-1.3333 v -4.5867 q 1.92,0.8533 4.7467,1.5467 2.88,0.6933 5.92,0.6933 4.2133,0 6.4,-1.6533 2.1866,-1.6534 2.1866,-4.48 0,-1.8667 -0.8,-3.1467 -0.8,-1.28 -2.7733,-2.3467 -1.9733,-1.0666 -5.3867,-2.3466 -4.9066,-1.76 -7.36,-4.32 -2.4533,-2.56 -2.4533,-6.9867 0,-2.9867 1.5467,-5.1733 1.5466,-2.1867 4.2666,-3.36 2.72,-1.1733 6.3467,-1.1733 3.0933,0 5.7067,0.5866 2.6133,0.5867 4.8,1.5467 l -1.4934,4.1066 q -1.9733,-0.8533 -4.32,-1.44 -2.3466,-0.5866 -4.8,-0.5866 -3.5733,0 -5.3866,1.5466 -1.8134,1.4934 -1.8134,4 0,1.92 0.8,3.2 0.8,1.28 2.6134,2.3467 1.8133,1.0133 4.9066,2.1333 3.36,1.2267 5.6534,2.6667 2.3466,1.3867 3.52,3.36 1.2266,1.9733 1.2266,4.96 z"
         id="path17600" />
      <path
         d="m 3399.4618,2352.9974 q -11.0416,-3.125 -16.6666,-11.4583 h -12.2917 q -4.7916,9.375 -16.25,12.5 l -1.6666,-4.1667 q 9.5833,-2.5 13.5416,-8.3333 h -12.7083 v -3.3334 h 12.0833 v -15.8333 h -8.9583 v -3.3333 h 8.9583 v -5.8333 h 3.9584 q 2.0833,0.2083 0.2083,1.25 v 4.5833 h 13.9583 v -5.8333 h 3.9584 q 2.0833,0.2083 0.2083,1.25 v 4.5833 h 8.5416 v 3.3333 h -8.5416 v 15.8333 h 11.875 v 3.3334 h -12.0833 q 2.9166,4.375 13.5416,7.0833 z m -33.1249,-1.4583 v -3.3334 h 8.125 v -4.5833 h 3.9583 q 2.0833,0.2083 0.2083,1.25 v 3.3333 h 8.5417 v 3.3334 h -8.5417 v 4.1666 h 17.9167 v 3.9584 h -39.7917 v -3.9584 h 17.7084 v -4.1666 z m 3.3333,-29.1667 v 3.125 h 13.9583 v -3.125 z m 0,6.4583 v 2.9167 h 13.9583 v -2.9167 z m 0,6.25 v 3.125 h 13.9583 v -3.125 z"
         id="path17602" />
      <path
         d="m 3438.2118,2334.2474 q 1.0417,6.4583 3.75,11.0417 2.7084,-3.9584 3.75,-11.0417 z m -8.125,22.0833 q 5.8334,-2.7083 9.1667,-7.0833 -3.9583,-7.7083 -5,-15 h -2.2917 v 4.375 q 0,16.4583 -7.0833,22.2917 l -2.5,-4.1667 q 5.4167,-5.4167 5.4167,-17.9167 v -21.8749 h 24.7916 v 3.9583 h -20.625 v 9.375 h 14.375 l 1.0417,-1.0417 3.5417,2.5 q 0.8333,0.625 -0.625,1.4583 -1.6667,8.9584 -5.625,15.8334 2.2916,3.3333 9.1666,6.6666 l -1.6666,4.375 q -5,-2.0833 -10.2084,-7.5 -3.75,4.7917 -10.2083,8.125 z m -15,5.2084 v -21.6667 q -3.125,7.2917 -6.6666,10.2083 l -2.0834,-3.75 q 6.875,-7.9166 8.75,-18.3333 h -7.5 v -3.9583 h 7.5 v -10.8333 h 3.9584 q 1.6666,0.2083 0.2083,1.25 v 9.5833 h 6.875 v 3.9583 h -6.875 v 7.2917 q 4.375,2.5 6.875,4.7916 l -1.875,4.1667 q -2.5,-1.875 -5,-4.1667 v 21.4584 z"
         id="path17604" />
    </g>
    <path
       style="fill:none;fill-opacity:1;stroke:#3d3d3d;stroke-width:10;stroke-linecap:round;stroke-linejoin:round;stroke-dasharray:none;stroke-opacity:1;paint-order:stroke fill markers"
       d="m 3354.713,2245.8658 v 48.1771"
       id="path10676-0-3" />
    <path
       style="fill:none;fill-opacity:1;stroke:#3d3d3d;stroke-width:10;stroke-linecap:round;stroke-linejoin:round;stroke-dasharray:none;stroke-opacity:1;paint-order:stroke fill markers"
       d="m 3656.7196,1923.6504 v 53.2385"
       id="path10676-0-7" />
    <rect
       style="fill:#242424;fill-opacity:1;stroke:none;stroke-width:9.11212;stroke-linecap:round;stroke-linejoin:round;stroke-dasharray:none;stroke-opacity:1;paint-order:stroke fill markers"
       id="rect14842"
       width="248.65802"
       height="28.235889"
       x="3369.1484"
       y="2118.3813" />
    <rect
       style="fill:#242424;fill-opacity:1;stroke:none;stroke-width:3.96359;stroke-linecap:round;stroke-linejoin:round;stroke-dasharray:none;stroke-opacity:1;paint-order:stroke fill markers"
       id="rect14842-8"
       width="47.047958"
       height="28.235889"
       x="3140.3899"
       y="2194.1064" />
    <rect
       style="fill:#242424;fill-opacity:1;stroke:none;stroke-width:3.25861;stroke-linecap:round;stroke-linejoin:round;stroke-dasharray:none;stroke-opacity:1;paint-order:stroke fill markers"
       id="rect14842-8-6"
       width="31.800138"
       height="28.235889"
       x="3294.7625"
       y="2194.1064" />
    <rect
       style="fill:#242424;fill-opacity:1;stroke:none;stroke-width:4.71337;stroke-linecap:round;stroke-linejoin:round;stroke-dasharray:none;stroke-opacity:1;paint-order:stroke fill markers"
       id="rect14842-8-1"
       width="66.531281"
       height="28.235889"
       x="3206.6638"
       y="2194.1064" />
    <path
       style="fill:none;fill-opacity:1;stroke:none;stroke-width:10;stroke-linecap:round;stroke-linejoin:round;stroke-dasharray:none;stroke-opacity:1;paint-order:stroke fill markers"
       d="m 3916.789,2044.5112 -82.2348,-73.4864 H 2809.2444"
       id="path15176" />
    <path
       style="fill:none;fill-opacity:1;stroke:#242424;stroke-width:38;stroke-linecap:butt;stroke-linejoin:round;stroke-dasharray:none;stroke-opacity:1;paint-order:stroke fill markers"
       id="path17408"
       sodipodi:type="arc"
       sodipodi:cx="3829.8391"
       sodipodi:cy="2047.6046"
       sodipodi:rx="94.630463"
       sodipodi:ry="58.48484"
       sodipodi:start="4.712389"
       sodipodi:end="0"
       sodipodi:arc-type="arc"
       d="m 3829.8391,1989.1198 a 94.630463,58.48484 0 0 1 94.6305,58.4848"
       sodipodi:open="true" />
    <text
       xml:space="preserve"
       style="font-size:53.3333px;font-family:'Noto Sans';-inkscape-font-specification:'Noto Sans';display:none;fill:#3d3d3d;fill-opacity:1;stroke:none;stroke-width:18.8976;stroke-linecap:round;stroke-linejoin:round;stroke-opacity:1;paint-order:stroke fill markers"
       x="3603.0737"
       y="1898.3745"
       id="text17581"><tspan
         sodipodi:role="line"
         x="0"
         y="0"
         id="tspan17579">筐体</tspan></text>
    <text
       xml:space="preserve"
       style="font-size:53.3333px;font-family:'Noto Sans';-inkscape-font-specification:'Noto Sans';display:none;fill:#3d3d3d;fill-opacity:1;stroke:none;stroke-width:18.8976;stroke-linecap:round;stroke-linejoin:round;stroke-opacity:1;paint-order:stroke fill markers"
       x="2781.9851"
       y="2356.5391"
       id="text17585"><tspan
         sodipodi:role="line"
         id="tspan17583"
         x="0"
         y="0">詰め物</tspan></text>
    <text
       xml:space="preserve"
       style="font-size:53.3333px;font-family:'Noto Sans';-inkscape-font-specification:'Noto Sans';display:none;fill:#3d3d3d;fill-opacity:1;stroke:none;stroke-width:18.8976;stroke-linecap:round;stroke-linejoin:round;stroke-opacity:1;paint-order:stroke fill markers"
       x="3251.3669"
       y="2356.5391"
       id="text17589"><tspan
         sodipodi:role="line"
         id="tspan17587"
         x="0"
         y="0">3DS基板</tspan></text>
  </g>
</svg>
