<?xml version="1.0" encoding="UTF-8" standalone="no"?>
<!DOCTYPE svg PUBLIC "-//W3C//DTD SVG 1.1//EN" "http://www.w3.org/Graphics/SVG/1.1/DTD/svg11.dtd">
<svg xmlns="http://www.w3.org/2000/svg" version="1.1" viewBox="0.00 0.00 433.00 513.00">
<path fill="#000000" d="
  M 319.53 28.58
  C 309.30 29.43 299.78 33.36 291.31 38.83
  C 276.40 48.48 266.80 64.72 262.99 81.81
  C 262.63 83.42 263.13 85.15 264.95 85.49
  C 285.52 89.38 305.73 97.34 324.17 107.76
  Q 326.18 108.89 323.88 108.92
  Q 313.90 109.04 303.30 110.55
  Q 271.61 115.05 244.49 124.51
  Q 231.60 129.01 216.37 136.02
  Q 206.66 140.49 198.61 145.29
  C 177.26 158.00 158.22 172.98 141.91 190.97
  Q 118.58 216.70 102.83 246.88
  C 96.46 259.09 90.72 274.04 86.77 287.38
  Q 80.56 308.33 80.05 329.01
  Q 79.78 339.70 80.51 349.48
  Q 81.50 362.83 85.77 376.05
  Q 86.01 376.79 85.24 376.88
  Q 49.67 380.69 16.06 375.92
  A 1.44 1.43 -6.3 0 1 14.92 375.01
  Q 9.40 360.08 6.41 346.28
  Q 2.81 329.67 1.50 311.20
  Q -1.37 270.77 10.66 231.56
  Q 14.18 220.08 18.08 211.21
  C 26.15 192.81 37.00 173.91 49.30 159.23
  C 72.77 131.19 102.36 109.39 135.30 94.43
  Q 137.17 93.58 139.01 94.48
  Q 153.15 101.41 169.37 105.38
  Q 171.03 105.79 169.48 106.50
  Q 159.36 111.19 148.77 116.56
  Q 139.59 121.20 131.60 126.22
  Q 96.33 148.35 70.15 183.12
  Q 60.31 196.20 54.89 206.36
  Q 40.33 233.63 34.52 257.52
  Q 30.06 275.88 29.71 294.04
  Q 29.65 297.44 30.39 300.80
  C 31.44 305.60 36.56 309.99 41.63 308.90
  C 47.43 307.66 49.48 302.07 49.95 296.82
  Q 52.54 267.90 64.17 241.04
  Q 77.77 209.62 98.70 184.86
  C 116.09 164.29 136.60 145.83 160.60 131.82
  Q 188.35 115.62 220.70 106.24
  Q 224.69 105.08 226.80 101.20
  C 230.09 95.16 224.94 85.88 217.86 85.98
  C 205.99 86.14 193.45 86.47 182.49 84.75
  Q 147.50 79.27 124.40 52.68
  C 113.95 40.65 105.50 27.25 97.09 13.34
  Q 96.47 12.31 97.56 11.78
  Q 108.70 6.36 119.33 3.60
  Q 124.15 2.35 129.99 1.58
  Q 137.88 0.53 140.56 0.44
  Q 177.81 -0.84 205.53 20.94
  Q 213.52 27.22 219.78 34.99
  Q 236.71 55.98 242.30 81.17
  Q 242.48 81.98 243.31 81.99
  L 247.66 82.06
  A 1.24 1.23 1.2 0 0 248.91 80.87
  Q 249.00 78.61 249.43 76.44
  C 255.57 45.29 277.38 16.46 309.95 9.91
  C 327.14 6.46 343.63 8.71 358.44 17.89
  A 1.30 1.29 26.2 0 1 358.97 19.44
  Q 352.90 35.84 341.63 48.66
  Q 337.68 53.15 332.82 56.66
  Q 311.19 72.26 286.14 66.26
  A 1.54 1.53 -75.2 0 1 285.02 64.33
  C 288.96 50.98 299.16 40.13 311.11 33.07
  Q 314.88 30.84 319.64 29.53
  Q 320.02 29.43 320.02 29.02
  Q 320.01 28.54 319.53 28.58
  Z
  M 154.42 25.52
  C 163.84 29.54 172.85 33.60 181.48 38.53
  C 191.05 44.01 199.60 51.22 206.97 58.88
  Q 210.52 62.56 212.45 65.22
  Q 215.30 69.14 213.38 64.69
  C 212.28 62.13 210.90 59.27 209.24 56.86
  Q 203.38 48.34 195.90 41.44
  C 191.75 37.60 186.84 34.52 182.01 31.77
  C 173.89 27.14 163.90 24.09 154.49 25.03
  Q 153.52 25.13 154.42 25.52
  Z"
/>
<path fill="#000000" d="
  M 387.35 197.32
  Q 386.57 207.28 387.14 218.82
  Q 387.50 225.86 385.48 236.80
  Q 382.07 255.30 376.25 270.55
  Q 371.02 284.24 366.30 293.12
  C 362.28 300.68 358.10 308.19 353.48 315.32
  Q 336.69 341.21 312.70 363.86
  Q 301.09 374.82 291.91 382.06
  C 290.66 383.05 289.13 383.65 287.97 384.90
  Q 287.23 385.69 286.27 386.38
  Q 264.75 401.86 247.06 411.73
  Q 219.18 427.28 189.26 437.43
  Q 170.80 443.69 149.52 448.06
  Q 126.20 452.85 102.12 453.17
  C 92.36 453.30 81.87 453.20 72.65 451.01
  Q 64.57 449.09 58.78 443.25
  Q 53.11 437.50 46.23 428.53
  Q 37.60 417.27 29.87 405.38
  Q 28.90 403.90 28.17 402.38
  Q 27.44 400.88 29.09 401.11
  Q 36.85 402.20 43.73 402.46
  Q 60.48 403.11 78.66 402.93
  Q 89.89 402.82 99.50 401.52
  C 114.02 399.56 129.08 396.89 143.42 392.97
  Q 179.88 382.99 213.90 366.49
  Q 220.25 363.41 226.88 359.67
  Q 233.17 356.12 239.56 352.39
  Q 272.12 333.43 301.08 306.33
  Q 307.45 300.37 313.37 293.97
  C 320.51 286.24 327.14 278.94 333.15 270.44
  Q 337.13 264.79 340.93 259.16
  C 350.37 245.19 356.74 229.78 362.39 213.90
  Q 363.66 210.36 364.58 206.38
  Q 364.69 205.92 364.22 205.88
  Q 363.77 205.85 363.53 206.24
  Q 346.09 235.18 323.69 258.76
  C 316.85 265.96 309.09 272.74 301.49 279.51
  Q 295.12 285.18 286.01 291.99
  Q 266.63 306.49 251.09 316.39
  Q 215.77 338.89 175.83 355.04
  Q 167.36 358.46 157.73 361.61
  Q 135.59 368.84 110.78 373.94
  Q 109.34 374.23 107.85 374.02
  Q 107.37 373.95 107.26 373.48
  Q 102.78 353.89 104.26 331.06
  Q 106.38 298.47 119.77 268.77
  Q 130.72 244.48 146.29 223.73
  C 157.81 208.40 171.66 195.52 187.39 183.07
  C 215.37 160.92 246.17 146.87 280.61 135.19
  C 290.46 131.86 301.02 129.13 311.01 127.14
  Q 317.88 125.76 324.48 125.89
  Q 326.59 125.92 328.48 126.72
  A 1.02 1.01 29.5 0 1 328.91 128.25
  Q 327.36 130.40 325.43 132.00
  C 314.55 141.03 302.06 148.95 288.67 155.79
  Q 255.05 172.98 218.12 183.45
  C 214.03 184.61 206.86 186.99 204.36 190.44
  Q 201.63 194.22 202.76 198.06
  Q 204.60 204.33 210.02 205.57
  Q 213.01 206.26 218.72 204.65
  Q 238.13 199.18 254.66 192.02
  C 277.30 182.22 298.94 170.56 318.74 155.08
  C 329.46 146.69 339.17 136.42 349.01 126.46
  A 0.84 0.83 -48.2 0 1 350.12 126.39
  Q 406.84 171.91 425.32 242.39
  Q 435.93 282.83 429.98 324.93
  Q 426.77 347.71 417.66 373.91
  Q 415.41 380.39 411.96 387.39
  Q 408.70 394.01 405.57 400.34
  Q 403.44 404.65 398.80 412.42
  Q 395.50 417.96 391.10 423.62
  Q 382.67 434.46 375.31 442.88
  C 362.38 457.68 347.34 469.44 330.78 480.03
  Q 309.71 493.50 288.74 500.41
  Q 274.70 505.03 259.19 508.43
  Q 243.84 511.79 223.26 512.05
  Q 206.98 512.26 198.48 511.50
  Q 147.78 507.02 104.30 479.65
  Q 102.92 478.78 102.34 478.05
  Q 101.49 476.97 102.87 476.98
  Q 118.98 477.12 133.25 476.72
  C 137.68 476.59 142.48 476.19 146.88 475.48
  Q 171.99 471.41 193.60 463.83
  C 201.37 461.11 212.32 456.67 221.04 452.46
  Q 229.17 448.53 238.15 444.24
  C 241.26 442.76 244.27 443.35 246.48 445.86
  C 250.59 450.53 246.30 455.18 241.96 457.24
  Q 235.00 460.54 228.10 463.44
  C 223.83 465.23 214.11 470.62 217.79 476.77
  C 221.13 482.37 226.75 481.56 231.98 479.49
  Q 267.10 465.56 292.70 447.99
  Q 313.89 433.45 328.30 419.25
  Q 344.10 403.68 355.27 388.96
  Q 369.97 369.59 379.54 349.45
  Q 398.49 309.61 400.65 268.76
  Q 402.14 240.54 393.51 213.73
  Q 390.71 205.03 387.65 197.27
  A 0.16 0.15 -54.1 0 0 387.35 197.32
  Z
  M 231.69 243.74
  Q 206.25 254.21 178.10 262.10
  Q 167.30 265.13 156.41 267.54
  C 150.29 268.89 144.76 271.44 142.11 277.17
  Q 139.36 283.14 143.19 288.89
  Q 148.27 296.50 157.39 294.17
  C 182.65 287.70 205.90 279.78 228.15 269.01
  Q 245.43 260.65 255.13 255.09
  Q 277.18 242.47 300.69 223.73
  Q 305.04 220.26 309.06 216.45
  C 313.27 212.47 317.45 208.81 321.22 204.54
  C 324.46 200.87 327.94 197.43 331.02 193.57
  Q 340.20 182.10 347.53 169.79
  C 350.18 165.34 351.72 160.56 353.99 155.97
  A 0.45 0.45 0.0 0 0 353.57 155.32
  Q 353.17 155.33 352.94 155.66
  Q 347.77 162.98 337.61 173.88
  Q 331.45 180.49 323.07 187.65
  Q 315.05 194.51 305.96 201.74
  Q 301.04 205.65 298.36 207.41
  Q 277.91 220.84 265.32 227.61
  Q 247.22 237.34 231.69 243.74
  Z"
/>
</svg>
