<?xml version="1.0" standalone="no"?>
<!DOCTYPE svg PUBLIC "-//W3C//DTD SVG 20010904//EN"
 "http://www.w3.org/TR/2001/REC-SVG-20010904/DTD/svg10.dtd">
<svg version="1.0" xmlns="http://www.w3.org/2000/svg"
 width="4044.000000pt" height="1000.000000pt" viewBox="0 0 4044.000000 1000.000000"
 preserveAspectRatio="xMidYMid meet">
<metadata>
Created by potrace 1.16, written by Peter Selinger 2001-2019
</metadata>
<g transform="translate(0.000000,1000.000000) scale(0.100000,-0.100000)"
fill="#000000" stroke="none">
<path d="M2710 9991 c-14 -5 -46 -9 -72 -10 -26 -1 -69 -5 -95 -10 -26 -5 -79
-14 -118 -21 -78 -13 -87 -16 -230 -61 -121 -39 -286 -111 -298 -130 -10 -17
4 -41 195 -331 159 -242 177 -266 275 -385 155 -187 336 -348 502 -446 126
-74 161 -91 271 -135 274 -107 502 -142 939 -142 206 0 218 -1 253 -23 46 -28
74 -64 93 -118 20 -55 19 -95 -4 -144 -30 -66 -67 -89 -228 -140 -156 -49
-305 -102 -388 -137 -27 -11 -63 -27 -80 -33 -190 -79 -436 -202 -607 -304
-317 -189 -564 -379 -837 -646 -361 -352 -591 -647 -824 -1055 -26 -45 -187
-368 -187 -374 0 -3 -12 -31 -26 -63 -42 -90 -120 -309 -148 -414 -39 -142
-46 -171 -65 -264 -20 -101 -44 -256 -56 -375 -14 -125 -49 -197 -115 -230
-96 -49 -211 -2 -256 105 -23 56 -29 186 -15 350 12 135 43 353 61 425 5 19
19 76 31 125 32 135 109 372 149 460 5 11 30 69 55 129 141 334 286 577 555
930 159 208 475 529 694 705 315 252 504 369 936 581 243 119 231 113 233 124
1 5 -41 21 -93 37 -166 48 -295 94 -425 153 -124 57 -103 59 -291 -34 -514
-255 -901 -535 -1300 -941 -328 -335 -526 -617 -748 -1069 -71 -146 -94 -195
-125 -275 -5 -11 -13 -31 -20 -45 -25 -57 -113 -334 -144 -460 -54 -212 -80
-350 -106 -555 -66 -514 -23 -1145 116 -1665 34 -131 110 -358 127 -385 12
-18 30 -23 113 -33 54 -7 141 -17 193 -24 212 -26 1028 -9 1063 22 5 4 -1 43
-14 86 -120 424 -120 999 1 1499 37 152 144 476 195 590 7 17 23 55 35 85 92
239 353 686 564 965 153 204 260 328 436 508 226 232 466 430 742 615 142 95
391 243 473 281 81 38 185 86 260 121 152 70 514 203 670 246 137 37 283 75
320 83 22 5 85 19 140 31 257 56 662 110 829 110 39 0 -8 30 -187 118 -230
113 -234 115 -392 174 -140 52 -256 87 -390 119 -218 52 -210 48 -213 92 -8
94 126 417 231 557 56 76 181 204 247 253 112 85 256 160 384 202 112 36 236
55 236 35 0 -5 -4 -10 -10 -10 -5 0 -34 -9 -65 -21 -129 -48 -345 -222 -452
-364 -60 -79 -135 -234 -137 -282 -1 -35 1 -37 44 -51 61 -20 372 -23 450 -4
204 50 408 162 545 297 134 133 295 381 374 578 19 47 21 60 10 73 -21 26
-209 112 -304 139 -255 73 -535 66 -795 -21 -219 -73 -383 -176 -555 -349
-240 -239 -398 -543 -470 -898 l-22 -112 -47 -3 c-58 -4 -70 5 -86 66 -54 210
-119 371 -223 552 -322 561 -821 892 -1447 961 -128 14 -302 19 -330 10z m563
-501 c183 -46 369 -148 546 -299 62 -53 192 -202 248 -286 46 -67 106 -186 98
-193 -3 -3 -19 12 -37 34 -107 132 -426 415 -526 465 -15 7 -39 21 -54 31 -41
28 -352 181 -445 219 -45 19 -83 37 -83 42 0 15 176 6 253 -13z"/>
<path d="M13515 8856 c-556 -54 -1132 -237 -1591 -507 -459 -269 -846 -651
-1098 -1082 -471 -804 -515 -1920 -109 -2777 248 -525 672 -977 1213 -1292
264 -154 622 -304 896 -377 39 -10 42 -14 47 -54 11 -81 58 -223 106 -322 265
-545 915 -904 1881 -1039 234 -33 389 -45 670 -53 275 -7 685 15 808 42 l22 5
0 357 0 356 -42 -6 c-24 -4 -88 -13 -143 -22 -183 -28 -412 -39 -544 -26 -430
40 -697 274 -776 676 -7 38 -13 70 -12 71 1 1 81 28 177 59 560 183 1021 457
1396 830 443 442 711 980 805 1615 27 177 36 565 20 751 -36 397 -135 747
-304 1079 -194 380 -489 725 -862 1007 -484 365 -1132 617 -1800 698 -179 22
-582 28 -760 11z m670 -644 c576 -125 934 -500 1075 -1124 55 -241 53 -214 58
-1228 4 -1030 1 -1108 -49 -1353 -39 -195 -76 -304 -154 -462 -162 -329 -416
-549 -762 -664 -172 -57 -243 -66 -508 -66 -210 1 -253 3 -343 23 -613 134
-986 565 -1096 1267 -32 208 -38 413 -33 1285 4 729 7 873 21 975 71 504 241
844 546 1090 164 132 406 233 650 271 128 20 478 11 595 -14z"/>
<path d="M18067 8713 c-4 -3 -7 -266 -7 -583 0 -475 2 -580 14 -589 10 -8 247
-10 877 -9 l864 3 3 593 2 592 -873 0 c-481 0 -877 -3 -880 -7z"/>
<path d="M38687 8713 c-4 -3 -7 -268 -7 -589 0 -521 2 -582 16 -588 9 -3 405
-6 880 -6 l864 0 0 595 0 595 -873 0 c-481 0 -877 -3 -880 -7z"/>
<path d="M6205 7539 c-115 -8 -281 -43 -538 -113 -70 -19 -290 -93 -407 -136
-47 -18 -94 -34 -105 -37 -11 -3 -24 -9 -30 -13 -5 -4 -21 -11 -35 -15 -33
-10 -297 -119 -385 -160 -241 -111 -423 -208 -625 -333 -122 -76 -267 -177
-395 -276 -588 -454 -964 -909 -1272 -1536 -52 -107 -99 -204 -103 -215 -4
-11 -17 -41 -29 -67 -12 -26 -21 -52 -21 -58 0 -6 -4 -18 -10 -28 -38 -66
-143 -455 -175 -645 -65 -392 -61 -825 11 -1164 6 -31 9 -33 49 -33 23 0 55 4
71 9 16 5 56 15 89 21 351 74 813 213 1125 338 743 298 1410 675 2090 1181
137 102 381 299 410 331 3 3 48 43 100 89 198 175 422 413 606 641 135 167
364 493 434 619 39 68 52 47 26 -39 -25 -81 -115 -322 -152 -405 -12 -27 -32
-72 -44 -100 -101 -227 -254 -477 -456 -745 -149 -198 -459 -530 -664 -711
-52 -46 -97 -87 -100 -90 -3 -3 -57 -48 -120 -100 -285 -235 -593 -452 -867
-610 -18 -11 -48 -28 -65 -38 -353 -206 -609 -330 -985 -480 -248 -99 -590
-215 -783 -266 -14 -3 -59 -15 -100 -26 -95 -26 -142 -37 -300 -71 -74 -15
-235 -44 -335 -59 -219 -33 -280 -39 -482 -50 -244 -12 -818 1 -984 23 -49 6
-92 8 -96 5 -17 -18 90 -182 307 -472 312 -416 395 -478 700 -520 125 -18 578
-20 745 -5 173 17 371 42 470 61 403 75 802 183 1091 294 38 15 98 38 134 52
36 14 79 31 95 38 17 8 89 39 160 71 421 184 891 456 1272 736 39 29 93 69
119 88 225 166 597 518 830 785 168 191 355 447 486 665 91 150 224 402 272
513 9 20 22 52 30 70 92 209 178 483 230 732 42 199 48 267 47 520 -2 272 4
351 23 319 18 -32 117 -320 144 -419 6 -22 15 -58 21 -80 83 -308 103 -784 51
-1175 -20 -155 -67 -382 -107 -520 -14 -47 -28 -98 -33 -115 -4 -16 -21 -70
-38 -120 -232 -689 -605 -1273 -1177 -1839 -299 -297 -681 -584 -1080 -814
-260 -149 -774 -382 -909 -413 -83 -18 -155 13 -192 83 -25 49 -18 82 32 136
49 55 106 92 224 142 287 123 330 155 330 249 0 73 -85 133 -157 112 -15 -5
-95 -41 -178 -81 -177 -86 -335 -160 -341 -160 -2 0 -29 -12 -60 -26 -205 -94
-606 -225 -839 -274 -33 -7 -73 -16 -90 -20 -51 -13 -200 -41 -315 -60 -115
-18 -349 -30 -607 -30 -154 0 -253 -4 -253 -10 0 -40 522 -313 794 -414 285
-107 610 -188 901 -225 205 -27 281 -31 553 -31 475 0 716 32 1157 156 466
130 764 271 1195 563 150 102 220 155 365 277 111 93 321 302 406 404 327 390
418 524 590 870 153 309 177 369 273 680 210 684 254 1401 124 2045 -54 270
-148 590 -233 790 -7 17 -30 71 -51 120 -157 371 -399 755 -674 1070 -133 153
-499 500 -566 538 -11 6 -64 -42 -202 -179 -103 -103 -225 -220 -271 -261
-225 -196 -504 -386 -851 -577 -70 -39 -330 -167 -395 -196 -22 -10 -65 -29
-95 -43 -239 -110 -719 -271 -846 -284 -127 -12 -208 61 -209 188 0 57 4 70
28 102 39 51 105 87 244 131 557 178 703 231 1018 369 133 58 412 195 520 255
302 166 645 419 645 474 0 28 -66 37 -205 27z m679 -612 c-8 -17 -20 -45 -26
-62 -48 -126 -210 -386 -357 -575 -227 -292 -565 -610 -911 -858 -391 -279
-608 -410 -1025 -616 -193 -95 -246 -121 -345 -163 -19 -9 -48 -21 -65 -28
-282 -123 -784 -287 -1100 -360 -87 -21 -152 -5 -215 52 -117 105 -120 250 -8
362 23 22 62 50 86 61 25 12 167 52 316 90 149 37 291 75 316 83 25 8 79 24
120 37 82 24 345 111 480 159 105 36 395 150 470 184 219 99 320 148 494 240
149 79 294 163 378 219 31 21 59 38 62 38 10 0 303 195 366 244 343 263 609
509 814 751 56 66 112 135 125 153 28 40 45 33 25 -11z"/>
<path d="M23775 6935 c-266 -43 -434 -94 -640 -195 -170 -84 -314 -181 -434
-296 l-91 -86 0 216 0 216 -880 0 -880 0 2 -1982 3 -1983 875 0 875 0 5 1335
5 1335 23 79 c86 305 314 505 634 556 104 17 301 8 393 -18 157 -43 267 -106
367 -209 101 -105 153 -205 191 -368 21 -88 21 -113 24 -1403 l4 -1312 872 2
872 3 0 1200 c0 1262 0 1263 -46 1489 -42 207 -145 459 -257 631 -223 340
-582 600 -998 720 -202 59 -341 77 -594 81 -170 2 -260 -1 -325 -11z"/>
<path d="M28740 6904 c-204 -18 -363 -50 -530 -104 -733 -240 -1250 -871
-1377 -1680 -24 -159 -24 -473 1 -625 152 -933 793 -1597 1696 -1756 148 -27
453 -36 611 -20 289 30 618 133 836 261 l81 48 8 -76 c10 -116 -2 -464 -20
-567 -57 -311 -178 -525 -371 -654 -208 -139 -487 -139 -684 0 -161 113 -270
313 -288 531 l-6 68 -828 0 c-657 0 -829 -3 -829 -12 0 -7 17 -51 38 -98 108
-241 351 -501 634 -676 464 -287 1058 -429 1718 -411 368 10 691 63 990 163
586 195 1014 541 1235 999 102 211 149 394 165 643 6 84 10 937 10 2000 l0
1852 -880 0 -880 0 0 -100 c0 -55 -3 -100 -6 -100 -3 0 -19 9 -35 21 -16 11
-89 49 -161 84 -200 95 -442 166 -668 195 -92 11 -387 21 -460 14z m813 -650
c228 -51 397 -222 471 -475 44 -154 48 -231 43 -1034 -3 -672 -5 -758 -21
-825 -72 -309 -219 -479 -481 -556 -83 -25 -295 -25 -385 -1 -258 70 -417 253
-487 562 -14 60 -17 179 -20 820 -3 513 -1 781 7 847 41 354 214 585 494 658
93 25 278 26 379 4z"/>
<path d="M35562 6899 c-291 -25 -663 -143 -883 -279 -27 -16 -51 -30 -54 -30
-3 0 -5 31 -5 69 0 38 -3 83 -6 100 l-6 31 -874 0 -874 0 0 -2720 0 -2720 875
0 875 0 0 835 c0 623 3 835 12 835 6 0 45 -20 87 -44 175 -101 414 -183 671
-232 167 -32 453 -43 636 -25 577 58 1084 338 1424 786 478 631 566 1509 224
2234 -104 220 -230 397 -409 577 -309 311 -692 500 -1150 569 -126 19 -408 27
-543 14z m-67 -644 c209 -44 384 -209 460 -433 55 -163 58 -205 63 -911 4
-694 -3 -884 -38 -1029 -54 -225 -178 -391 -352 -471 -115 -54 -174 -66 -313
-66 -143 0 -200 13 -320 70 -174 84 -287 235 -345 462 -36 140 -42 295 -37
1023 5 743 6 760 57 910 81 235 251 400 460 444 87 19 277 19 365 1z"/>
<path d="M18060 4817 c0 -1521 3 -1976 12 -1985 9 -9 218 -12 880 -12 l868 0
0 1985 0 1985 -880 0 -880 0 0 -1973z"/>
<path d="M38680 4811 c0 -1795 1 -1979 16 -1985 9 -3 405 -6 880 -6 l864 0 0
1985 0 1985 -880 0 -880 0 0 -1979z"/>
</g>
</svg>
