<?xml version="1.0" standalone="no"?>
<!DOCTYPE svg PUBLIC "-//W3C//DTD SVG 20010904//EN"
 "http://www.w3.org/TR/2001/REC-SVG-20010904/DTD/svg10.dtd">
<svg version="1.0" xmlns="http://www.w3.org/2000/svg"
 width="4333.000000pt" height="767.000000pt" viewBox="0 0 4333.000000 767.000000"
 preserveAspectRatio="xMidYMid meet">
<metadata>
Created by potrace 1.16, written by Peter Selinger 2001-2019
</metadata>
<g transform="translate(0.000000,767.000000) scale(0.100000,-0.100000)"
fill="#ffffff" stroke="none">
<path d="M2940 7663 c-57 -9 -230 -83 -230 -98 0 -2 17 1 38 7 62 18 230 2
542 -51 335 -56 743 -122 935 -151 72 -11 153 -25 180 -30 28 -6 111 -19 185
-29 162 -23 516 -79 765 -121 99 -16 252 -41 340 -55 88 -14 214 -34 280 -45
107 -18 247 -40 700 -111 702 -110 758 -120 848 -150 180 -60 340 -230 411
-434 20 -59 21 -73 24 -1422 l2 -1361 -42 -36 c-23 -20 -48 -36 -55 -36 -11 0
-13 242 -13 1373 0 1510 3 1422 -62 1556 -19 40 -56 89 -97 131 -103 105 -224
157 -441 190 -41 6 -145 22 -230 35 -85 13 -213 33 -285 44 -143 22 -506 81
-880 141 -368 60 -487 79 -655 105 -85 13 -225 35 -310 49 -85 14 -299 48
-475 76 -176 28 -403 64 -505 81 -102 16 -257 40 -345 54 -88 14 -182 30 -210
35 -27 5 -144 26 -260 46 -272 46 -384 45 -486 -2 -79 -37 -140 -97 -181 -178
-59 -117 -58 -72 -58 -1482 l0 -1291 68 -12 c150 -28 161 -31 164 -54 4 -26
33 -34 345 -93 112 -22 203 -43 203 -48 0 -4 -14 -24 -30 -43 -17 -18 -42 -57
-58 -86 -24 -47 -27 -62 -27 -152 0 -156 -8 -146 142 -174 70 -13 196 -37 278
-53 83 -16 211 -40 285 -54 144 -26 561 -107 930 -179 124 -25 287 -56 363
-70 76 -14 157 -29 180 -35 23 -5 116 -23 207 -41 91 -17 278 -53 415 -79 138
-27 327 -63 420 -80 205 -38 487 -95 571 -116 56 -14 62 -18 68 -46 3 -17 6
-39 6 -50 0 -22 18 -24 -250 29 -96 19 -186 37 -200 39 -14 3 -189 36 -390 75
-201 38 -410 78 -465 89 -92 17 -514 99 -880 170 -82 16 -303 59 -490 95 -187
36 -491 95 -675 131 -184 35 -384 74 -445 86 -60 11 -113 24 -117 27 -4 3 -18
60 -31 126 l-24 120 -64 11 c-35 6 -111 21 -169 32 -185 37 -322 62 -341 62
-16 0 -18 5 -13 28 19 82 80 171 142 209 l37 23 -36 0 c-163 0 -289 -169 -277
-372 4 -70 10 -91 50 -169 l46 -90 -81 -127 c-138 -217 -617 -954 -790 -1217
-306 -464 -336 -521 -344 -666 -7 -107 7 -171 57 -266 21 -39 55 -114 76 -165
51 -130 100 -196 191 -259 89 -62 238 -102 963 -259 78 -16 328 -73 525 -119
44 -10 125 -29 180 -41 171 -38 358 -80 400 -90 22 -5 191 -44 375 -85 184
-41 373 -84 420 -95 47 -11 148 -33 225 -50 125 -27 223 -50 420 -95 33 -8
132 -30 220 -50 88 -20 205 -47 260 -60 271 -65 328 -78 429 -96 237 -42 458
-6 636 101 161 97 233 192 465 610 32 58 82 143 110 190 29 47 147 256 263
465 115 209 251 449 301 533 50 85 91 155 91 157 0 5 137 242 199 345 56 93
106 213 122 293 6 29 13 118 15 198 5 138 3 150 -22 225 -45 136 -89 200 -161
235 -55 27 -100 20 -149 -23 -69 -60 -113 -179 -114 -301 0 -53 33 -194 56
-238 20 -39 18 -53 -12 -101 -14 -23 -88 -152 -164 -287 -76 -135 -177 -316
-226 -401 -139 -246 -193 -342 -309 -550 -187 -337 -346 -612 -395 -685 -101
-149 -248 -261 -408 -312 -144 -45 -360 -40 -547 12 -27 8 -160 39 -295 69
-135 30 -294 66 -355 81 -94 22 -350 78 -480 105 -131 28 -1648 372 -1845 420
-69 16 -177 42 -240 57 -63 15 -117 28 -119 29 -2 2 10 21 25 43 31 43 46 48
104 31 19 -6 53 -15 75 -19 22 -5 112 -25 200 -46 88 -20 306 -70 485 -111
179 -40 505 -114 725 -164 606 -138 941 -214 1260 -285 263 -59 349 -79 570
-132 99 -24 300 -24 380 0 112 34 203 85 269 150 82 81 160 201 346 537 157
282 317 565 425 750 34 58 84 146 112 195 28 50 108 190 177 313 70 122 124
226 122 231 -3 5 -95 26 -203 46 -109 21 -293 56 -409 79 l-211 41 24 38 c20
33 28 38 51 33 15 -3 90 -17 167 -31 77 -15 241 -46 364 -71 124 -24 226 -42
228 -40 2 2 -6 32 -18 67 -15 44 -24 96 -27 165 l-4 100 -87 17 c-47 9 -178
35 -290 57 -112 22 -206 42 -209 45 -8 7 28 95 64 155 49 84 98 132 126 126
13 -3 84 -17 158 -30 74 -14 200 -38 280 -53 106 -21 176 -28 260 -28 l116 0
60 53 c35 31 81 87 112 136 l53 83 -3 1299 -3 1299 -28 88 c-94 302 -293 489
-587 550 -73 16 -402 69 -745 122 -93 15 -278 44 -410 65 -132 22 -386 62
-565 90 -179 28 -473 75 -655 105 -181 29 -395 63 -475 75 -80 11 -167 25
-195 30 -27 6 -151 26 -275 45 -361 57 -394 62 -625 99 -486 78 -535 84 -625
69z m2219 -610 c85 -65 77 -207 -14 -232 -49 -13 -94 2 -135 44 -32 34 -35 41
-35 100 0 56 3 66 27 88 15 14 33 27 40 30 24 11 83 -5 117 -30z m-1489 -42
c30 -6 129 -22 220 -36 91 -14 257 -41 370 -60 113 -18 264 -43 335 -54 637
-99 608 -94 612 -107 2 -5 -15 -18 -37 -28 -89 -39 -130 -106 -130 -213 0 -24
-3 -43 -7 -43 -4 0 -33 7 -65 16 -32 9 -62 14 -66 10 -9 -10 -16 -169 -8 -200
13 -52 170 -96 339 -96 154 0 147 -5 147 104 0 58 -4 96 -12 104 -7 7 -31 12
-54 12 -69 0 -74 5 -74 71 0 51 4 63 31 94 39 43 54 52 127 71 31 8 70 24 85
35 l29 21 241 -40 c133 -23 330 -55 437 -72 272 -43 554 -91 563 -97 9 -5 9
-2173 0 -2516 l-6 -248 -26 6 c-14 4 -87 17 -161 30 -74 13 -205 38 -290 55
-85 17 -184 34 -220 37 -36 3 -67 9 -70 12 -6 8 -84 25 -265 57 -148 26 -331
60 -665 124 -113 21 -304 57 -425 80 -443 83 -1017 191 -1127 213 l-58 11 0
1341 0 1342 88 -13 c48 -7 112 -17 142 -23z m-726 -736 l37 -56 -38 -44 c-20
-25 -40 -45 -43 -45 -3 0 -22 26 -42 57 l-36 57 35 43 c19 24 39 43 43 43 4 0
24 -25 44 -55z m-270 -230 l37 -56 -38 -44 c-20 -25 -40 -45 -43 -45 -3 0 -22
26 -42 57 l-36 57 35 43 c19 24 39 43 43 43 4 0 24 -25 44 -55z m270 -50 l37
-56 -38 -44 c-20 -25 -40 -45 -43 -45 -3 0 -22 26 -42 57 l-36 57 35 43 c19
24 39 43 43 43 4 0 24 -25 44 -55z m270 -50 l37 -56 -38 -44 c-20 -25 -40 -45
-43 -45 -3 0 -22 26 -42 57 l-36 57 35 43 c19 24 39 43 43 43 4 0 24 -25 44
-55z m-270 -230 l37 -56 -38 -44 c-20 -25 -40 -45 -43 -45 -3 0 -22 26 -42 57
l-36 57 35 43 c19 24 39 43 43 43 4 0 24 -25 44 -55z m4390 -200 l37 -56 -38
-44 c-20 -25 -40 -45 -43 -45 -3 0 -22 26 -42 57 l-36 57 35 43 c19 24 39 43
43 43 4 0 24 -25 44 -55z m-270 -230 l37 -56 -38 -44 c-20 -25 -40 -45 -43
-45 -3 0 -22 26 -42 57 l-36 57 35 43 c19 24 39 43 43 43 4 0 24 -25 44 -55z
m270 -50 l37 -56 -38 -44 c-20 -25 -40 -45 -43 -45 -3 0 -22 26 -42 57 l-36
57 35 43 c19 24 39 43 43 43 4 0 24 -25 44 -55z m270 -50 l37 -56 -38 -44
c-20 -25 -40 -45 -43 -45 -3 0 -22 26 -42 57 l-36 57 35 43 c19 24 39 43 43
43 4 0 24 -25 44 -55z m-270 -230 l37 -56 -38 -44 c-20 -25 -40 -45 -43 -45
-3 0 -22 26 -42 57 l-36 57 35 43 c19 24 39 43 43 43 4 0 24 -25 44 -55z
m-3616 -1529 c192 -38 492 -95 667 -128 61 -11 277 -53 480 -93 204 -40 489
-96 635 -125 146 -28 317 -62 380 -76 63 -13 136 -27 163 -30 26 -4 47 -8 47
-9 0 -3 -154 -276 -553 -980 -158 -279 -517 -906 -534 -931 -6 -9 -42 -4 -133
17 -175 42 -293 68 -620 139 -157 34 -352 77 -435 95 -82 19 -285 64 -450 100
-165 37 -327 73 -360 82 -33 8 -130 30 -215 48 -352 75 -410 89 -410 96 0 9
85 151 255 424 64 105 149 242 188 305 39 63 132 212 207 330 75 118 180 285
232 370 108 175 205 331 232 373 10 15 25 27 32 27 8 0 94 -15 192 -34z m-910
-31 c115 -27 186 -81 212 -160 46 -138 -104 -355 -313 -454 -187 -88 -355
-102 -497 -40 -162 72 -185 242 -55 407 152 194 431 299 653 247z m3999 -719
c36 -38 48 -74 39 -108 -11 -44 -46 -89 -93 -118 -85 -54 -169 -65 -233 -29
-63 36 -76 90 -39 166 41 84 135 136 234 129 53 -4 63 -8 92 -40z m-4617 -166
c141 -30 140 -30 140 -39 0 -5 -25 -48 -55 -97 -30 -48 -53 -89 -51 -91 2 -2
12 -6 22 -8 11 -2 59 -14 109 -25 49 -12 91 -23 94 -25 5 -5 -106 -192 -119
-200 -5 -3 -62 6 -126 20 -65 14 -120 22 -124 18 -4 -5 -35 -52 -70 -106 -59
-90 -66 -98 -89 -92 -14 4 -69 16 -121 26 -52 11 -98 24 -103 28 -4 4 22 51
58 104 42 63 61 99 53 101 -7 2 -65 14 -128 27 -63 12 -116 23 -118 25 -5 3
119 189 128 192 5 2 61 -8 125 -23 64 -14 120 -23 125 -20 5 3 37 51 71 105
33 55 66 100 73 100 7 0 54 -9 106 -20z m4064 -31 c110 -96 1 -272 -178 -286
-74 -6 -117 11 -141 57 -20 40 -19 76 6 127 38 78 126 131 221 132 50 1 62 -3
92 -30z m688 -151 c60 -22 88 -120 54 -186 -25 -49 -91 -100 -151 -117 -76
-23 -129 -13 -173 31 -33 33 -34 37 -30 94 3 48 10 67 35 97 67 84 173 116
265 81z m-522 -214 c112 -67 60 -236 -89 -289 -117 -41 -231 12 -231 108 0 64
85 166 155 186 51 15 135 12 165 -5z"/>
<path d="M4163 6480 c-22 -5 -59 -18 -80 -28 -49 -25 -167 -134 -220 -204 -42
-54 -106 -201 -118 -273 -4 -22 -14 -65 -22 -95 -8 -30 -30 -137 -49 -238 -29
-157 -35 -219 -44 -435 -13 -325 -13 -514 0 -522 6 -3 10 -22 10 -42 0 -19 6
-49 14 -66 8 -18 17 -44 20 -58 7 -33 88 -125 129 -146 22 -11 45 -14 84 -9
52 6 57 9 156 109 56 56 109 114 117 129 42 75 408 450 458 469 77 29 229 51
313 45 210 -15 370 -60 504 -140 87 -52 233 -204 300 -313 16 -26 38 -58 48
-69 10 -12 40 -53 65 -90 26 -38 73 -104 105 -146 31 -43 57 -82 57 -87 0 -5
33 -51 73 -104 39 -52 79 -105 87 -118 8 -13 36 -45 61 -71 44 -46 49 -48 102
-48 75 0 98 10 141 63 48 59 65 126 72 300 9 205 -22 754 -45 797 -5 9 -12 54
-16 100 -4 47 -11 90 -15 95 -4 6 -10 36 -14 68 -3 32 -10 65 -15 75 -5 9 -19
80 -31 157 -11 77 -26 143 -32 146 -6 4 -19 37 -28 73 -10 36 -29 81 -44 100
-14 19 -26 39 -26 45 0 6 -9 16 -20 23 -11 7 -20 20 -20 28 0 21 -91 110 -112
110 -9 0 -23 8 -30 18 -11 14 -78 53 -98 57 -3 0 -17 9 -32 19 -20 13 -54 19
-140 23 -100 5 -119 3 -168 -17 -30 -12 -71 -34 -90 -48 -50 -38 -152 -90
-192 -97 -20 -4 -69 -2 -109 4 -41 6 -99 13 -129 17 -215 21 -296 53 -401 157
-134 133 -190 169 -363 233 -41 15 -145 17 -213 4z m165 -269 c21 -11 66 -48
100 -82 74 -75 92 -123 92 -239 0 -78 -20 -141 -54 -170 -9 -7 -16 -19 -16
-26 0 -8 -6 -14 -12 -14 -7 0 -31 -14 -52 -30 -36 -27 -47 -30 -113 -30 -61 0
-82 5 -125 28 -121 64 -178 161 -178 301 0 43 3 93 6 110 7 33 81 123 118 143
60 32 180 37 234 9z m1649 -228 c50 -23 73 -66 73 -135 0 -49 -3 -59 -26 -77
-32 -25 -59 -26 -108 -6 -53 22 -78 68 -72 127 10 93 59 126 133 91z m-209
-189 c32 -22 52 -67 52 -114 0 -34 -6 -47 -32 -71 -48 -43 -86 -40 -133 12
-34 38 -37 45 -32 87 9 81 87 127 145 86z m446 -77 c58 -62 58 -145 1 -178
-47 -28 -77 -23 -118 16 -43 42 -53 74 -41 123 17 69 109 91 158 39z m-1464
-48 l50 -11 0 -68 0 -68 63 -14 62 -13 0 -60 c0 -67 5 -64 -85 -54 l-35 4 -3
-60 c-2 -33 -7 -63 -11 -68 -4 -4 -31 -3 -59 4 l-52 11 0 64 c0 49 -3 64 -15
64 -7 0 -37 5 -65 11 l-50 11 0 63 c0 73 12 84 77 66 54 -15 53 -16 53 43 0
49 7 86 16 86 1 0 26 -5 54 -11z m1214 -113 c42 -22 55 -46 56 -105 0 -74 -24
-101 -90 -101 -38 0 -52 6 -83 34 -52 48 -50 102 6 164 24 26 71 29 111 8z
m-530 -54 c43 -33 55 -49 67 -89 38 -136 -13 -221 -145 -239 -38 -6 -50 -2
-89 25 -54 37 -97 108 -97 160 0 85 53 173 110 184 55 11 101 -1 154 -41z"/>
<path d="M2269 3165 c-50 -27 -111 -128 -123 -203 -13 -86 41 -149 154 -178
44 -11 82 -14 120 -10 156 18 330 95 406 179 80 89 73 91 -67 19 l-130 -66
-112 -1 c-129 0 -191 18 -232 66 -33 40 -33 90 0 155 14 27 25 50 25 52 0 5
-17 0 -41 -13z"/>
<path d="M1975 6365 c-216 -49 -351 -108 -554 -243 -223 -148 -328 -265 -386
-431 -21 -61 -20 -259 1 -332 9 -30 24 -65 34 -79 10 -14 35 -61 57 -105 22
-44 59 -118 83 -165 38 -73 44 -95 48 -161 l4 -77 -48 -53 c-38 -40 -73 -64
-152 -102 -56 -27 -108 -50 -115 -51 -27 -5 -89 -29 -149 -58 -34 -16 -94 -41
-133 -55 -88 -32 -242 -108 -320 -158 -65 -41 -183 -133 -201 -156 -14 -17
-94 -171 -112 -216 -32 -78 -41 -256 -18 -363 20 -93 45 -142 121 -236 22 -27
45 -54 50 -61 6 -7 25 -29 43 -49 17 -19 32 -45 32 -56 0 -44 30 -85 76 -103
61 -23 185 -92 204 -113 35 -38 114 -150 150 -211 58 -99 91 -126 180 -146
105 -23 271 -60 361 -80 42 -10 87 -15 101 -12 18 5 44 35 87 100 33 51 61 98
61 104 0 5 -33 17 -72 26 -40 9 -100 23 -133 31 -33 9 -116 28 -184 43 -143
32 -155 42 -126 97 11 20 23 36 27 36 3 0 10 9 13 20 3 11 12 26 19 32 6 7 27
36 46 63 19 28 38 52 41 55 3 3 21 28 40 55 59 87 90 124 108 130 9 3 135 -22
280 -55 l264 -60 28 32 c29 34 44 66 36 75 -8 7 -73 23 -362 88 -66 15 -169
39 -230 52 -163 37 -200 38 -297 11 -105 -29 -181 -28 -282 6 -80 27 -129 32
-168 17 -31 -12 -52 0 -127 71 -81 77 -105 130 -105 233 0 183 82 315 248 396
44 22 83 39 87 39 4 0 18 4 31 9 13 5 26 9 30 10 5 0 39 17 77 36 37 19 71 35
74 35 3 0 18 5 34 12 15 6 30 12 33 13 74 19 316 141 410 206 47 32 107 79
134 104 27 25 52 45 55 45 16 0 61 133 61 181 0 45 -46 169 -88 236 -31 51
-97 202 -128 293 -14 41 -19 84 -19 171 0 115 0 116 39 193 69 135 149 207
326 292 47 23 112 49 145 58 33 10 83 28 112 42 28 13 57 24 63 24 20 0 135
62 153 83 9 11 17 30 17 42 0 36 -21 85 -40 95 -25 14 -103 11 -175 -5z
m-1366 -3029 c27 -23 135 -56 184 -56 68 0 198 21 229 36 54 28 51 15 -13 -61
-56 -67 -62 -74 -103 -130 -17 -22 -32 -42 -36 -45 -3 -3 -17 -21 -31 -40 -30
-40 -85 -100 -92 -100 -2 0 -32 34 -67 75 -51 61 -79 84 -161 131 -54 31 -99
58 -99 61 0 2 21 29 48 60 67 78 108 98 141 69z"/>
<path d="M42030 5520 c0 -374 -2 -680 -4 -680 -3 0 -26 13 -53 29 -127 78
-284 105 -603 105 l-245 0 -120 -38 c-586 -183 -860 -418 -1019 -875 -50 -144
-74 -271 -86 -462 -23 -363 48 -627 244 -913 181 -266 423 -413 791 -479 108
-20 155 -22 475 -22 377 0 473 9 578 55 l42 19 0 -45 0 -44 575 0 575 0 0
2015 0 2015 -575 0 -575 0 0 -680z m-254 -893 c131 -44 213 -122 251 -237 17
-51 18 -109 18 -815 0 -834 1 -815 -60 -901 -62 -87 -189 -151 -336 -169 -113
-14 -244 40 -335 137 -88 96 -140 223 -169 413 -21 144 -21 946 0 1090 42 281
156 447 345 500 75 21 194 13 286 -18z"/>
<path d="M22835 6133 c-22 -2 -89 -10 -150 -19 -618 -86 -1066 -344 -1348
-774 -185 -283 -313 -707 -342 -1140 -15 -211 63 -655 160 -916 164 -440 427
-729 813 -892 349 -147 666 -213 1032 -214 384 -1 723 62 955 177 307 152 568
443 741 824 54 120 144 375 144 408 0 18 -17 19 -372 16 -205 -2 -509 -6 -675
-9 l-302 -6 -6 -67 c-30 -315 -122 -570 -258 -716 -115 -124 -222 -170 -378
-163 -156 7 -249 77 -334 253 -79 163 -125 389 -145 720 -14 242 -15 995 -1
1129 36 335 109 549 232 681 77 82 137 112 254 126 120 15 196 6 272 -31 169
-83 288 -345 323 -710 6 -63 13 -139 16 -167 l5 -53 685 0 c648 0 685 1 680
18 -3 9 -10 37 -16 62 -86 345 -257 670 -471 894 -246 258 -555 424 -949 510
-178 38 -461 68 -565 59z"/>
<path d="M10200 4135 l0 -1955 550 0 550 0 0 1430 c0 787 3 1430 8 1430 4 -1
408 -644 897 -1430 l890 -1430 543 0 542 0 0 1955 0 1955 -575 0 -575 0 -2
-1322 -3 -1323 -860 1322 -860 1323 -552 0 -553 0 0 -1955z"/>
<path d="M30940 4135 l0 -1955 550 0 550 0 0 1955 0 1955 -550 0 -550 0 0
-1955z"/>
<path d="M32310 4135 l0 -1955 555 0 555 0 2 1192 3 1191 464 -1084 c255 -596
467 -1087 471 -1092 3 -4 206 504 451 1130 l444 1137 3 -1237 2 -1237 515 0
515 0 0 1955 0 1955 -521 -2 -521 -3 -461 -1167 c-254 -643 -464 -1165 -468
-1160 -4 4 -219 529 -477 1167 l-470 1160 -531 3 -531 2 0 -1955z"/>
<path d="M25850 5345 l0 -275 -330 0 -330 0 0 -225 0 -225 330 0 330 0 0
-1220 0 -1220 555 0 555 0 0 1220 0 1220 330 0 330 0 0 225 0 225 -330 0 -330
0 0 275 0 275 -555 0 -555 0 0 -275z"/>
<path d="M15668 4945 c-478 -68 -798 -235 -1024 -534 -172 -226 -304 -613
-304 -887 0 -304 202 -753 438 -976 185 -174 420 -277 782 -345 137 -25 558
-25 718 0 182 29 298 63 417 121 290 143 481 388 610 779 25 75 45 142 45 147
0 7 -181 10 -517 10 l-518 0 3 -135 c7 -301 -69 -468 -252 -554 -121 -57 -224
-63 -355 -19 -183 60 -254 272 -268 801 l-6 227 970 0 971 0 -5 48 c-2 26 -11
97 -19 157 -80 584 -406 959 -962 1105 -221 58 -536 82 -724 55z m298 -302
c145 -49 243 -164 288 -338 16 -64 36 -208 36 -262 l0 -33 -426 0 -426 0 7 68
c16 177 48 299 100 388 89 152 270 228 421 177z"/>
<path d="M18765 4948 c-431 -48 -809 -248 -996 -525 -157 -232 -253 -602 -229
-881 50 -590 269 -962 685 -1162 317 -152 820 -233 1148 -185 588 87 1067 381
1237 760 101 224 148 554 116 803 -91 699 -525 1097 -1294 1187 -141 17 -533
18 -667 3z m490 -343 c128 -34 210 -103 271 -229 68 -141 69 -153 69 -816 0
-658 1 -649 -66 -786 -74 -151 -262 -258 -422 -239 -179 20 -310 114 -387 280
-74 156 -75 171 -75 790 1 533 1 552 22 627 35 122 70 186 142 259 50 50 81
71 126 88 114 43 220 52 320 26z"/>
<path d="M37755 4954 c-330 -47 -504 -102 -712 -226 -303 -181 -472 -459 -543
-893 -23 -136 -24 -208 -10 -356 40 -391 179 -708 397 -909 216 -198 546 -324
978 -375 239 -28 428 -16 664 41 399 98 752 305 925 544 97 135 167 314 203
520 27 149 24 454 -5 586 -24 113 -80 281 -119 358 -162 323 -462 548 -873
651 -188 48 -278 57 -585 60 -159 2 -303 1 -320 -1z m445 -350 c151 -35 252
-142 308 -325 38 -124 44 -235 40 -784 -5 -571 -5 -575 -70 -713 -80 -170
-278 -275 -460 -242 -244 43 -391 234 -428 555 -12 113 -13 857 0 988 18 186
67 312 155 403 110 112 286 158 455 118z"/>
<path d="M29582 4879 c-180 -30 -397 -151 -495 -275 -23 -29 -46 -53 -50 -53
-5 -1 -7 70 -5 157 l3 157 -597 3 -598 2 0 -1350 0 -1350 595 0 595 0 0 1018
c1 1089 -1 1051 51 1126 31 46 104 93 180 118 111 35 296 14 409 -48 102 -55
170 -172 170 -290 l0 -44 440 0 440 0 0 48 c0 71 -26 230 -49 295 -37 107 -83
179 -166 263 -67 68 -96 89 -175 127 -107 52 -214 81 -345 97 -106 12 -328 11
-403 -1z"/>
</g>
</svg>
