<?xml version="1.0" encoding="UTF-8" standalone="no"?>
<!-- Created with Inkscape (http://www.inkscape.org/) -->

<svg
   width="717.55072mm"
   height="185.20847mm"
   viewBox="0 0 717.55072 185.20847"
   version="1.1"
   id="svg5"
   sodipodi:docname="string.svg"
   inkscape:version="1.2.2 (732a01da63, 2022-12-09)"
   xmlns:inkscape="http://www.inkscape.org/namespaces/inkscape"
   xmlns:sodipodi="http://sodipodi.sourceforge.net/DTD/sodipodi-0.dtd"
   xmlns="http://www.w3.org/2000/svg"
   xmlns:svg="http://www.w3.org/2000/svg">
  <sodipodi:namedview
     id="namedview7"
     pagecolor="#ffffff"
     bordercolor="#000000"
     borderopacity="0.25"
     inkscape:showpageshadow="2"
     inkscape:pageopacity="0.0"
     inkscape:pagecheckerboard="0"
     inkscape:deskcolor="#d1d1d1"
     inkscape:document-units="mm"
     showgrid="false"
     inkscape:zoom="0.16721495"
     inkscape:cx="2428.0125"
     inkscape:cy="1599.7373"
     inkscape:window-width="1409"
     inkscape:window-height="1000"
     inkscape:window-x="579"
     inkscape:window-y="417"
     inkscape:window-maximized="0"
     inkscape:current-layer="layer1" />
  <defs
     id="defs2" />
  <g
     inkscape:label="Layer 1"
     inkscape:groupmode="layer"
     id="layer1"
     transform="translate(-29.267865,73.344652)">
    <text
       xml:space="preserve"
       style="font-size:176.389px;font-family:'Noto Sans Mono';-inkscape-font-specification:'Noto Sans Mono';display:none;fill:#ffffff;stroke-width:0.1;paint-order:stroke fill markers"
       x="22.212305"
       y="71.294334"
       id="text236"><tspan
         sodipodi:role="line"
         id="tspan234"
         style="font-style:normal;font-variant:normal;font-weight:normal;font-stretch:normal;font-size:176.389px;font-family:'Nu Hanafudaya';-inkscape-font-specification:'Nu Hanafudaya';fill:#000000;stroke-width:0.1"
         x="22.212305"
         y="71.294334">Qingpi</tspan></text>
    <g
       aria-label="Qingpi"
       id="text6169"
       style="font-size:176.389px;font-family:'Noto Sans Mono';-inkscape-font-specification:'Noto Sans Mono';display:inline;fill:#ffffff;stroke-width:0.1;paint-order:stroke fill markers">
      <path
         d="m 192.25131,0.73873138 c 0,-49.91808938 -44.45003,-74.08338338 -81.49172,-74.08338338 -37.041695,0 -81.491725,24.165294 -81.491725,74.08338338 0,39.68752662 28.045853,62.97087562 58.031984,70.90838062 2.822224,20.637514 26.634741,34.925028 67.380601,34.925028 5.82084,0 12.34723,-0.52917 16.0514,-1.05834 V 88.227679 c -3.88056,0.881945 -9.7014,1.587501 -14.28751,1.587501 -12.8764,0 -20.46113,-6.702782 -21.87224,-18.168068 29.98613,-8.113894 57.67921,-31.397243 57.67921,-70.90838062 z M 146.03739,17.848465 c 0,31.92641 -17.81529,41.980584 -35.2778,41.980584 -17.462515,0 -35.277805,-10.054174 -35.277805,-41.980584 v -34.219467 c 0,-31.926411 17.81529,-41.980584 35.277805,-41.980584 17.46251,0 35.2778,10.054173 35.2778,41.980584 z"
         style="font-family:'Nu Hanafudaya';-inkscape-font-specification:'Nu Hanafudaya';fill:#000000"
         id="path6171" />
      <path
         d="m 253.63463,-41.418241 v -28.398631 h -41.98058 v 28.398631 z m 0,112.712575 v -94.897286 h -41.98058 v 94.897286 z"
         style="font-family:'Nu Hanafudaya';-inkscape-font-specification:'Nu Hanafudaya';fill:#000000"
         id="path6173" />
      <path
         d="m 355.23474,-27.48351 c -12.8764,0 -25.92919,4.586114 -34.92503,14.28751 v -10.406952 h -41.98058 v 94.897286 h 41.98058 V 11.67485 c 0,-14.2875098 10.23056,-19.755569 19.57918,-19.755569 9.34862,0 19.57918,5.4680592 19.57918,19.755569 v 59.619484 h 41.98059 V 19.083188 c 0,-32.455577 -23.28335,-46.566698 -46.21392,-46.566698 z"
         style="font-family:'Nu Hanafudaya';-inkscape-font-specification:'Nu Hanafudaya';fill:#000000"
         id="path6175" />
      <path
         d="m 540.79586,-23.602952 h -41.98059 v 4.938893 c -7.05556,-4.586115 -17.28612,-7.761117 -27.86946,-7.761117 -31.04447,0 -50.09448,24.3416833 -50.09448,50.270867 0,25.929184 19.2264,50.270868 50.27087,50.270868 10.58334,0 20.46112,-3.175003 27.51668,-7.761117 l 0.17639,6.702782 c 0.35278,19.931958 -9.525,26.987516 -17.6389,26.987516 -8.99584,0 -15.16945,-7.584725 -15.16945,-16.933342 H 426.143 c 4.40973,13.581954 23.10696,28.751412 55.03337,28.751412 34.57225,0 59.61949,-18.168072 59.61949,-45.861146 z m -58.73754,82.550056 c -9.34862,0 -16.75696,-5.997226 -16.75696,-20.461125 V 9.2054037 c 0,-14.4638986 7.40834,-20.4611247 16.75696,-20.4611247 9.34861,0 16.75695,5.9972261 16.75695,20.4611247 V 38.485979 c 0,14.463899 -7.40834,20.461125 -16.75695,20.461125 z"
         style="font-family:'Nu Hanafudaya';-inkscape-font-specification:'Nu Hanafudaya';fill:#000000"
         id="path6177" />
      <path
         d="m 635.16416,-26.425176 c -10.58334,0 -20.46112,3.175002 -27.51668,7.761117 l -0.17639,-4.938893 H 565.4905 V 106.57214 h 41.98059 V 66.355442 c 7.05556,4.586114 17.28612,7.761117 27.86946,7.761117 31.04447,0 50.09448,-24.341684 50.09448,-50.270868 0,-25.9291837 -19.2264,-50.270867 -50.27087,-50.270867 z m 5.82084,64.911155 c 0,14.463899 -7.40834,20.461125 -16.75696,20.461125 -9.34861,0 -16.75695,-5.997226 -16.75695,-20.461125 V 9.2054037 c 0,-14.4638986 7.40834,-20.4611247 16.75695,-20.4611247 9.34862,0 16.75696,5.9972261 16.75696,20.4611247 z"
         style="font-family:'Nu Hanafudaya';-inkscape-font-specification:'Nu Hanafudaya';fill:#000000"
         id="path6179" />
      <path
         d="m 746.81856,-41.418241 v -28.398631 h -41.98058 v 28.398631 z m 0,112.712575 v -94.897286 h -41.98058 v 94.897286 z"
         style="font-family:'Nu Hanafudaya';-inkscape-font-specification:'Nu Hanafudaya';fill:#000000"
         id="path6181" />
    </g>
  </g>
</svg>
